<svg width="1440" height="1024" viewBox="0 0 1440 1024" fill="none" xmlns="http://www.w3.org/2000/svg">
<g clip-path="url(#clip0)">
<path d="M1359.11 5.47889C1356.45 4.49937 1118.83 87.7004 1118.37 88.1037C1116.24 89.0256 1083.79 411.631 1052.44 567.95C1043.68 611.913 1021.84 699.954 1022.41 700.761C1046.56 771.17 1101.14 935.268 1104.19 932.444C1163.04 879.781 1283.84 771.113 1284.41 770.364L1359.05 645.447C1360.13 644.849 1360.93 643.858 1361.3 642.681C1401.64 521.683 1496.96 230.364 1496.96 230.364C1453.45 158.744 1361.87 5.01794 1359.11 5.47889ZM1486.48 232.092C1469.59 239.64 1430.28 259.807 1427.34 261.766C1426.85 262.107 1426.4 262.514 1426.02 262.976C1415.64 248.379 1405.29 233.821 1394.95 219.301L1369.88 40.1076L1486.48 232.092ZM1384.35 214.807C1383.9 215.098 1383.51 215.469 1383.2 215.901L1328.16 273.52L1219.52 274.787L1357.84 24.7234C1366.68 88.0653 1375.51 151.35 1384.35 214.576V214.807ZM1421.12 273.117C1392.94 322.752 1367.91 374.115 1346.2 426.9L1333.23 282.854L1387.17 225.754L1420.72 272.886L1421.12 273.117ZM1126.9 95.1908L1349.19 19.9987C1303.62 102.393 1258.06 184.787 1212.49 267.182L1126.9 95.1908ZM1318.88 283.603C1318.32 284.452 1318.03 285.45 1318.04 286.467C1318.06 287.484 1318.38 288.473 1318.96 289.305C1319.54 290.138 1320.37 290.775 1321.32 291.135C1322.27 291.495 1323.31 291.561 1324.3 291.324L1338.18 445.223C1337.35 445.664 1336.66 446.321 1336.17 447.124L1114.16 827.752L1086.44 751.349C1086.61 751.038 1086.75 750.71 1086.85 750.37L1127.19 622.918C1127.31 622.778 1127.4 622.623 1127.48 622.457L1185.57 510.044C1186.01 509.245 1186.21 508.338 1186.15 507.429C1186.09 506.521 1185.77 505.649 1185.23 504.916C1183.11 466.196 1181 427.476 1178.89 388.757C1178.89 388.757 1178.89 388.353 1178.89 388.181L1216.06 285.044L1318.88 283.603ZM1263.2 591.862L1259.23 656.74L1218.08 669.186L1263.2 591.862ZM1124.88 606.209C1126.38 554.16 1127.9 502.131 1129.44 450.12C1129.77 449.822 1130.08 449.494 1130.36 449.141L1169.95 395.21C1171.91 431.702 1173.83 468.193 1175.72 504.685C1175.77 505.495 1176.01 506.283 1176.41 506.99C1159.31 540.101 1142.21 573.174 1125.12 606.209H1124.88ZM1113.36 229.557C1117.51 190.204 1120.91 150.85 1123.79 111.439L1206.44 277.726C1206.08 278.492 1205.89 279.328 1205.89 280.175C1205.89 281.021 1206.08 281.857 1206.44 282.624L1172.55 376.772C1171.34 376.772 1119.81 444.301 1119.7 446.779C1118.03 503.821 1115.72 621.593 1117.16 622.342C1104.37 662.368 1091.59 702.412 1078.84 742.476C1078.84 742.476 1038.95 682.15 1037.74 681.919C1072.27 532.828 1097.6 381.756 1113.59 229.557H1113.36ZM1033.25 700.933C1033.88 698.398 1034.46 695.805 1035.09 693.213L1074.57 754.058C1075.25 755.13 1076.33 755.895 1077.57 756.189L1105.4 832.88C1105.66 833.567 1106.05 834.195 1106.56 834.723C1104.14 854.256 1101.72 873.731 1099.24 893.264L1033.25 700.933ZM1272.83 767.886L1107.19 916.369L1106.5 914.41L1115.49 842.675C1116.52 842.27 1117.38 841.515 1117.91 840.543L1210.64 681.574H1211.05L1258.48 667.284C1258.55 668.105 1258.86 668.886 1259.37 669.532C1259.89 670.177 1260.58 670.658 1261.36 670.914C1265.32 703.257 1269.22 735.581 1273.06 767.886H1272.83ZM1351.84 639.109C1351.14 639.518 1350.56 640.117 1350.17 640.837L1281.3 756.074C1277.46 724.115 1273.62 692.118 1269.77 660.082C1269.77 658.907 1269.41 657.761 1268.74 656.798L1273.81 573.597C1273.81 573.597 1273.81 573.597 1273.81 573.136C1296.75 534.589 1348.62 449.717 1348.62 449.717C1348.62 449.717 1401.29 326.644 1434.43 269.141C1434.43 269.141 1468.61 253.296 1482.96 245.748C1439.5 376.887 1395.88 508.008 1352.07 639.109H1351.84Z" fill="#4E738A" fill-opacity="0.1"/>
<path d="M0.000197676 620.21C-1.15247 622.86 67.7768 864.916 68.1226 865.434C68.9295 867.624 389.082 919.48 543.308 959.871C586.706 971.394 673.271 998.36 674.136 997.841C745.832 977.905 912.968 933.251 910.432 930.024C861.329 868.142 760.24 741.094 759.318 740.46C719.436 713.264 639.21 658.642 639.037 658.584C638.792 658.026 638.435 657.523 637.989 657.107C637.543 656.691 637.018 656.37 636.444 656.164C518.238 608.802 233.011 496.158 233.011 496.158C158.664 535.28 0.000197676 617.444 0.000197676 620.21ZM233.876 506.702C240.446 523.987 258.197 564.32 259.984 567.489C260.304 568 260.691 568.465 261.136 568.872L215.664 597.278L35.2717 611.567L233.876 506.702ZM210.304 607.707C210.538 608.23 210.849 608.716 211.226 609.147C229.515 628.353 247.746 647.752 265.92 667.342C264.191 703.526 262.443 739.691 260.675 775.837L19.3073 622.688L210.304 607.707ZM270.876 574.346C318.761 605.399 368.559 633.4 419.973 658.181L275.256 662.56L221.485 605.287L270.53 574.634L270.876 574.346ZM75.7302 857.31L14.0627 631.042L252.664 782.233L75.7302 857.31ZM275.314 676.849C276.135 677.441 277.113 677.778 278.125 677.815C279.137 677.853 280.138 677.59 281 677.06C281.863 676.53 282.55 675.757 282.974 674.837C283.398 673.918 283.54 672.894 283.383 671.894L437.84 667.227C438.227 668.088 438.846 668.826 439.626 669.359L806.404 913.603L728.426 936.651L727.504 936.19L602.671 888.021L602.267 887.675L493.456 823.315C492.687 822.835 491.798 822.58 490.891 822.58C489.984 822.58 489.096 822.835 488.326 823.315L371.965 822.739H371.389L270.358 779.467C272.048 745.319 273.7 711.113 275.314 676.849ZM579.79 750.831L644.339 758.667C647.682 772.611 650.967 786.497 654.252 800.441L579.79 750.831ZM585.842 889.519L430.232 875.633C429.992 875.267 429.701 874.937 429.368 874.653L377.843 832.419L487.347 832.937C488.224 833.01 489.104 832.83 489.882 832.419L585.842 889.519ZM209.093 878.514C170.057 872.06 130.962 866.298 91.8099 861.228L262.75 788.686C263.495 789.092 264.32 789.328 265.167 789.378C266.014 789.428 266.861 789.29 267.649 788.975L359.862 828.443C359.862 829.653 424.123 885.14 426.544 885.37C483.485 890.441 600.884 899.775 601.691 898.392L719.378 943.795C719.378 943.795 656.788 979.98 656.442 981.19C509.572 937.832 360.174 903.542 209.093 878.514V878.514ZM675 986.606L667.393 984.359L730.443 948.578C731.572 947.984 732.422 946.97 732.806 945.754L811.015 922.707C811.716 922.502 812.365 922.148 812.917 921.67L870.896 932.444L675 986.606ZM756.148 751.753L894.468 925.934L892.451 926.51L821.389 913.085C821.072 912.011 820.376 911.09 819.429 910.492L666.24 808.565C666.264 808.431 666.264 808.295 666.24 808.161C662.436 792.086 658.632 776.068 654.713 759.992C655.542 759.961 656.345 759.696 657.028 759.226C657.712 758.757 658.248 758.104 658.575 757.342L756.148 751.753ZM632.236 665.325C632.607 666.068 633.163 666.703 633.85 667.169L744.737 742.764L648.201 748.526C647.032 748.47 645.872 748.75 644.858 749.333L562.097 739.307H561.636C524.578 714.647 442.969 657.604 442.969 657.604C442.969 657.604 323.265 597.681 267.822 561.151C267.822 561.151 253.99 526.177 247.304 511.369L632.236 665.325Z" fill="#4E738A" fill-opacity="0.1"/>
<path d="M1105.29 931.292H1105.81L1217.44 1020.83C1217.75 1021.68 1218.33 1022.41 1219.09 1022.91C1219.85 1023.41 1220.75 1023.65 1221.65 1023.6H1290.18C1290.85 1023.89 1291.58 1024.02 1292.31 1024L1598.92 1010.81C1603.36 1010.81 1650.15 912.854 1668.65 865.203C1669.08 864.278 1669.14 863.228 1668.83 862.259C1668.52 861.289 1667.86 860.47 1666.98 859.96L1666.58 859.442L1521.17 704.506C1521.06 703.358 1520.54 702.288 1519.7 701.494C1518.87 700.7 1517.77 700.235 1516.62 700.184L1374.78 689.064C1374.43 688.411 1373.93 687.847 1373.33 687.411C1372.73 686.976 1372.04 686.681 1371.31 686.548C1370.58 686.415 1369.83 686.448 1369.11 686.644C1368.4 686.84 1367.74 687.195 1367.17 687.681L1229.37 809.026C1228.15 809.131 1227 809.624 1226.07 810.433C1225.15 811.241 1224.51 812.322 1224.24 813.52L1103.79 919.653C1103.05 920.056 1102.4 920.619 1101.9 921.3C1101.39 921.982 1101.05 922.766 1100.88 923.597C1100.72 924.428 1100.74 925.285 1100.94 926.107C1101.15 926.929 1101.53 927.696 1102.06 928.353C1102.29 929.085 1102.71 929.743 1103.28 930.26C1103.84 930.776 1104.54 931.132 1105.29 931.292V931.292ZM1364.64 702.892L1295.48 837.662L1239.52 812.771L1364.64 702.892ZM1526.7 921.036L1415.47 937.515L1308.27 846.535C1308.32 845.505 1308 844.491 1307.37 843.677C1306.73 842.864 1305.83 842.304 1304.82 842.098L1371.67 711.938C1423.42 781.618 1475.18 851.317 1526.93 921.036H1526.7ZM1498.87 708.654L1417.83 758.091L1373.86 698.859L1498.87 708.654ZM1645.77 851.951L1428.55 763.276L1513.91 711.42L1645.77 851.951ZM1649.58 864.051L1541.98 922.361C1541.61 921.541 1541.02 920.838 1540.28 920.33C1539.54 919.822 1538.67 919.528 1537.77 919.48L1430.28 774.8L1649.58 864.051ZM1595.75 995.421L1545.95 931.407L1655 872.348C1638.07 914.634 1618.36 955.749 1595.98 995.421H1595.75ZM1306.95 1013.51L1413.28 947.655C1413.86 947.715 1414.44 947.715 1415.01 947.655L1533.62 930.024L1534.48 931.234C1534.61 932.17 1534.97 933.061 1535.52 933.827L1588.2 1001.47L1306.95 1013.51ZM1296.52 1008.39C1300.05 958.449 1303.55 908.513 1307.01 858.577L1404.64 941.087L1296.52 1008.39ZM1224.01 953.417L1297.67 853.968L1286.89 1008.44L1224.01 953.417ZM1128.57 936.996L1215.02 958.718L1277.79 1013.69H1224.13L1223.73 1013.28L1128.57 936.996ZM1114.4 923.283L1231.68 820.031L1291.04 846.42L1215.37 948.577L1114.4 923.283Z" fill="#4E738A" fill-opacity="0.1"/>
<path d="M1043.45 386.683C1043.45 386.683 807.73 178.277 684.164 83.3791C683.524 82.8281 682.742 82.4662 681.908 82.3339C681.073 82.2016 680.218 82.3041 679.438 82.6301C677.594 80.5558 676.384 79.6915 676.211 80.7287C675.689 82.0025 675.689 83.4305 676.211 84.7043C673.272 134.89 666.644 246.497 666.471 249.724C642.111 336.919 617.713 424.096 593.277 511.254C592.758 513.213 605.726 604.077 611.316 648.27C611.719 651.67 866.862 827.694 981.725 927.547C992.905 937.86 994.865 919.192 994.692 915.62C1018.28 770.652 1045.68 626.337 1076.88 482.675C1077.22 479.679 1043.45 386.683 1043.45 386.683ZM746.985 401.951C747.911 401.269 748.581 400.295 748.886 399.186C757.224 369.916 765.619 340.665 774.072 311.433C778.145 341.049 782.275 370.645 786.463 400.223C786.535 401.025 786.812 401.796 787.266 402.461C787.719 403.127 788.336 403.665 789.057 404.026L836.719 449.487L783.812 545.537C771.517 497.713 759.241 449.852 746.985 401.951ZM736.495 400.626L773.496 544.672L676.153 493.622L686.182 362.31L734.651 399.531C735.184 399.968 735.818 400.265 736.495 400.396V400.626ZM782.602 299.563L843.751 369.109C843.251 393.078 842.752 417.028 842.252 440.959L796.146 396.939C791.497 364.595 786.905 332.137 782.371 299.563H782.602ZM726.179 157.304C830.726 239.237 929.394 310.684 1033.94 392.617L957.864 473.744L851.762 445.569L853.375 366.401C853.375 364.096 803.465 308.782 779.951 281.99C760.01 236.932 745.947 202.361 726.179 157.304ZM962.475 483.481L1037.86 402.816C1017 464.275 996.171 525.562 975.385 586.676L942.476 543.347L961.38 484.231C961.767 484.015 962.134 483.764 962.475 483.481V483.481ZM992.329 869.525C987.834 780.562 983.358 691.618 978.901 602.694C979.938 602.348 1024.32 473.514 1045.47 411.228C1051.86 434.909 1065.58 484.231 1066.33 484.749C1038.47 612.278 1013.73 740.46 992.099 869.294L992.329 869.525ZM788.48 558.04C788.48 558.04 826.691 488.898 845.653 454.327L951.755 482.502L932.045 544.154C931.296 546.631 957.115 579.359 968.584 594.455L984.433 913.085C984.433 913.085 787.501 559.595 788.25 557.809L788.48 558.04ZM624.745 645.735C635.464 624.954 646.146 604.154 656.789 583.334C658.114 582.239 669.237 529.058 674.655 504.109L771.709 554.986C771.075 556.369 901.903 787.822 966.855 901.849C858.461 809.192 744.186 723.642 624.745 645.735V645.735ZM606.014 530.037L647.337 580.223L619.269 634.845C614.851 599.928 610.432 564.992 606.014 530.037ZM669.987 272.598C672.465 298.469 677.537 350.268 677.479 350.268C676.614 351.593 665.952 496.849 665.952 496.849C660.765 520.703 655.598 544.576 650.449 568.469L603.074 510.85C625.398 431.529 647.702 352.111 669.987 272.598ZM677.306 246.324C687.104 211.215 696.94 176.087 706.814 140.94L770.211 284.006C770.206 284.625 770.345 285.236 770.614 285.793L770.902 287.982C770.642 288.391 770.447 288.838 770.326 289.307C760.49 323.533 750.673 357.739 740.875 391.926L687.68 351.074C684.145 316.158 680.687 281.241 677.306 246.324ZM678.632 205.184C680.63 170.613 682.685 135.869 684.798 100.953C689.524 109.595 694.25 118.238 699.034 126.939C698.746 128.091 685.836 180.236 678.632 205.184ZM938.845 308.437C866.746 252.201 776.377 184.269 716.958 137.713C716.612 137.368 710.387 126.593 709.984 126.19C709.984 126.19 703.068 115.473 695.576 104.41C777.011 167.732 861.213 240.274 938.845 308.437Z" fill="#4E738A" fill-opacity="0.1"/>
<path d="M614.025 626.317C615.004 625.223 597.714 458.59 594.372 458.014C593.738 458.014 412.308 253.526 409.945 253.065C368.277 245.229 282.173 229.557 281.193 230.018C280.213 230.479 244.423 357.643 245.403 358.91L403.433 573.654C405.047 576.016 613.045 628.046 614.025 626.317ZM418.072 567.662C416.112 548.475 414.21 529.288 412.308 510.043L581.577 610.991L418.072 567.662ZM421.703 419.237L403.433 491.145L285.688 369.742L305.745 298.872L421.703 419.237ZM431.097 422.233L497.951 446.375C478.529 455.536 441.356 475.184 414.441 488.609C419.935 466.522 425.449 444.397 430.982 422.233H431.097ZM591.375 605.46L414.21 499.903L507.173 453.865C535.298 504.378 563.327 554.909 591.259 605.46H591.375ZM606.244 611.913L518.699 453.693L588.551 466.887C594.314 515.248 600.173 563.59 606.129 611.913H606.244ZM576.332 454.384C550.916 449.141 518.353 441.996 511.841 441.305C511.47 441.022 511.063 440.789 510.631 440.613L428.042 410.709C427.64 410.66 427.234 410.66 426.832 410.709L314.505 293.801C347.246 288.52 379.388 280.028 410.464 268.449L576.332 454.384ZM289.492 240.331L401.128 261.42C370.66 272.278 339.222 280.189 307.243 285.043C306.767 284.595 306.222 284.226 305.629 283.949C300.212 269.429 294.852 254.851 289.492 240.331ZM281.769 247.764L297.734 290.805C290.587 316.042 283.556 341.26 276.64 366.458L254.739 353.494C263.73 318.308 272.74 283.065 281.769 247.764V247.764ZM267.591 372.739C271.741 375.216 282.691 380.863 282.691 380.863L399.053 500.594C399.79 520.943 402.199 541.197 406.257 561.151L267.591 372.739Z" fill="#4E738A" fill-opacity="0.1"/>
<path d="M1051.81 411.804C1053.13 411.286 1109.44 238.949 1106.44 236.99C1105.87 236.586 1026.79 -24.9437 1024.83 -26.3265C990.312 -50.9296 918.674 -101 917.464 -101C916.253 -101 830.668 -0.513452 831.014 1.04225C848.822 87.9885 866.631 171.017 884.44 257.963C885.016 260.901 1050.19 412.956 1051.81 411.804ZM900.289 262.63L919.135 207.95C956.251 262.188 993.386 316.369 1030.54 370.492L900.289 262.63ZM965.76 129.474L919.308 187.092C900.596 133.93 881.846 80.7285 863.058 27.4891L910.951 -28.516L965.76 129.474ZM973.08 136.157L1023.68 186.113C1002.24 186.113 960.285 188.417 930.143 189.57L973.08 136.157ZM1041.84 369.685L925.302 199.48L1029.04 196.772C1033.34 254.352 1037.61 311.951 1041.84 369.57V369.685ZM1052.61 381.727C1048.19 321.574 1043.78 261.458 1039.36 201.382L1096.99 242.579C1082.28 288.904 1067.48 335.248 1052.61 381.612V381.727ZM1091.69 226.157C1070.83 210.773 1044.26 190.607 1038.61 187.265C1038.36 186.802 1038.05 186.376 1037.69 185.997L975.212 124.346C974.835 124.087 974.429 123.874 974.002 123.712L920.922 -29.2074C952.935 -20.2493 985.751 -14.4596 1018.9 -11.9219C1043.18 67.3611 1067.44 146.721 1091.69 226.157V226.157ZM920.749 -88.3816L1013.31 -22.5237C981.091 -25.4147 949.227 -31.3961 918.155 -40.3854C917.92 -40.987 917.568 -41.5355 917.118 -41.9987L920.749 -88.3816ZM910.605 -84.8668L907.032 -38.7721L855.969 20.863L841.791 0.0627434L910.605 -84.8668ZM845.422 22.6492C848.131 26.6248 855.738 36.3624 855.738 36.3624L911.239 193.776C903.396 212.574 897.093 231.979 892.393 251.798C876.717 175.472 861.06 99.0896 845.422 22.6492Z" fill="#4E738A" fill-opacity="0.1"/>
</g>
<defs>
<clipPath id="clip0">
<rect width="1669" height="1125" fill="white" transform="translate(0 -101)"/>
</clipPath>
</defs>
</svg>
