<svg width="191" height="46" viewBox="0 0 191 46" fill="none" xmlns="http://www.w3.org/2000/svg">
<path d="M26.688 39.808C26.752 40 26.72 40.144 26.592 40.24C26.368 40.272 26.208 40.24 26.112 40.144C25.472 39.376 24.72 38.88 23.856 38.656C22.992 38.464 22.128 38.272 21.264 38.08C20.208 37.856 19.136 37.68 18.048 37.552C16.992 37.424 15.92 37.36 14.832 37.36C13.328 37.36 11.84 37.488 10.368 37.744C8.896 38 7.44 38.368 6 38.848C5.36 39.072 4.976 39.344 4.848 39.664C4.752 39.984 4.832 40.464 5.088 41.104C5.152 41.2 5.216 41.296 5.28 41.392C5.376 41.488 5.408 41.632 5.376 41.824C5.184 41.888 4.992 41.952 4.8 42.016C4.64 42.112 4.464 42.16 4.272 42.16C4.016 42.16 3.792 42.064 3.6 41.872C2.992 42.064 2.592 42.16 2.4 42.16C2.048 42.16 1.68 41.952 1.296 41.536C0.72 40.928 0.64 40.208 1.056 39.376C1.344 38.832 1.728 38.416 2.208 38.128C2.656 37.872 2.928 37.472 3.024 36.928C3.536 34.4 4.208 31.792 5.04 29.104C5.904 26.384 6.752 23.808 7.584 21.376C7.648 21.216 7.696 21.056 7.728 20.896C7.76 20.736 7.808 20.576 7.872 20.416C7.904 20.352 7.92 20.224 7.92 20.032C7.472 20.128 7.04 20.224 6.624 20.32C6.208 20.384 5.792 20.448 5.376 20.512C5.216 20.544 5.072 20.576 4.944 20.608C4.816 20.608 4.672 20.608 4.512 20.608C3.776 20.608 3.104 20.448 2.496 20.128C1.184 19.488 0.56 18.448 0.624 17.008C0.656 16.592 0.72 16.192 0.816 15.808C0.944 15.424 1.136 15.056 1.392 14.704C1.488 14.448 1.616 14.288 1.776 14.224C1.968 14.128 2.176 14.08 2.4 14.08H3.072C2.368 14.624 2.144 15.312 2.4 16.144C2.464 16.304 2.48 16.48 2.448 16.672C2.448 16.864 2.464 17.056 2.496 17.248C2.688 18.656 3.392 19.36 4.608 19.36C4.736 19.36 4.848 19.36 4.944 19.36C5.072 19.328 5.216 19.296 5.376 19.264C5.536 19.2 5.712 19.152 5.904 19.12C6.096 19.088 6.272 19.04 6.432 18.976C6.976 18.784 7.392 18.64 7.68 18.544C8 18.416 8.256 18.256 8.448 18.064C8.64 17.872 8.8 17.632 8.928 17.344C9.056 17.024 9.232 16.608 9.456 16.096C9.84 15.04 10.384 13.776 11.088 12.304C11.824 10.832 12.624 9.36 13.488 7.888C14.384 6.384 15.344 4.992 16.368 3.712C17.392 2.432 18.4 1.488 19.392 0.879997C19.84 0.655998 20.272 0.543999 20.688 0.543999C21.52 0.543999 22.192 0.879998 22.704 1.552C22.832 1.744 22.96 1.856 23.088 1.888C23.024 2.016 22.944 2.096 22.848 2.128C22.752 2.16 22.688 2.16 22.656 2.128C22.56 2.096 22.464 2.064 22.368 2.032C22.304 2 22.24 1.984 22.176 1.984C21.792 2.24 21.552 2.496 21.456 2.752C21.36 2.976 21.312 3.232 21.312 3.52C21.152 4.352 20.912 5.136 20.592 5.872C20.272 6.576 19.888 7.28 19.44 7.984C19.376 8.112 19.296 8.24 19.2 8.368C19.104 8.464 19.072 8.608 19.104 8.8C19.264 8.8 19.376 8.688 19.44 8.464C19.984 7.6 20.496 6.72 20.976 5.824C21.456 4.928 21.728 3.936 21.792 2.848C21.792 2.688 21.872 2.608 22.032 2.608C22.16 2.64 22.192 2.736 22.128 2.896C22.096 3.184 22.064 3.472 22.032 3.76C22.032 4.016 22 4.288 21.936 4.576C22.096 4.544 22.16 4.464 22.128 4.336C22.128 4.208 22.208 4.128 22.368 4.096C22.4 3.84 22.416 3.584 22.416 3.328C22.448 3.072 22.544 2.784 22.704 2.464C22.832 2.656 22.896 2.848 22.896 3.04C22.928 3.2 23.024 3.344 23.184 3.472C23.248 3.536 23.264 3.696 23.232 3.952C23.2 4.176 23.024 4.288 22.704 4.288C22.704 4.352 22.72 4.432 22.752 4.528C22.784 4.592 22.784 4.64 22.752 4.672C22.496 4.992 22.336 5.344 22.272 5.728C22.24 6.112 22.144 6.48 21.984 6.832C21.888 7.024 21.792 7.248 21.696 7.504C21.632 7.728 21.424 7.856 21.072 7.888C21.008 7.888 20.928 7.952 20.832 8.08C20.768 8.208 20.768 8.336 20.832 8.464C20.928 8.624 20.928 8.752 20.832 8.848C20.768 8.944 20.704 9.04 20.64 9.136C20.192 9.776 19.776 10.416 19.392 11.056C19.008 11.664 18.544 12.24 18 12.784C17.488 13.328 16.96 13.856 16.416 14.368C15.872 14.88 15.328 15.392 14.784 15.904C14.528 16.128 14.256 16.352 13.968 16.576C13.712 16.8 13.44 16.992 13.152 17.152C12.608 17.472 12.176 17.872 11.856 18.352C11.536 18.8 11.28 19.312 11.088 19.888C10.576 21.296 10.064 22.688 9.552 24.064C9.072 25.44 8.56 26.832 8.016 28.24C7.664 29.264 7.264 30.416 6.816 31.696C6.4 32.944 6.064 34.096 5.808 35.152C5.744 35.312 5.68 35.488 5.616 35.68C5.552 35.872 5.488 36.048 5.424 36.208C5.616 36.272 5.744 36.288 5.808 36.256C5.872 36.256 5.936 36.256 6 36.256C8.496 35.36 11.024 34.912 13.584 34.912C14.288 34.912 15.28 34.976 16.56 35.104C17.872 35.232 19.2 35.456 20.544 35.776C21.888 36.096 23.12 36.512 24.24 37.024C25.36 37.568 26.08 38.24 26.4 39.04C26.464 39.168 26.512 39.28 26.544 39.376C26.576 39.504 26.624 39.648 26.688 39.808ZM21.84 4.96C21.68 5.184 21.568 5.376 21.504 5.536C21.44 5.696 21.392 5.904 21.36 6.16C21.616 6 21.744 5.824 21.744 5.632C21.776 5.44 21.808 5.216 21.84 4.96ZM18.192 10.096C18.384 9.904 18.56 9.712 18.72 9.52C18.912 9.328 19.04 9.104 19.104 8.848C18.848 9.008 18.656 9.2 18.528 9.424C18.432 9.616 18.32 9.84 18.192 10.096ZM19.44 3.76C19.184 3.92 18.944 4.112 18.72 4.336C18.496 4.528 18.4 4.8 18.432 5.152C18.56 5.088 18.656 5.056 18.72 5.056C18.848 5.056 18.88 5.12 18.816 5.248C18.784 5.344 18.736 5.456 18.672 5.584C18.64 5.712 18.592 5.808 18.528 5.872C18.304 6.032 18.144 6.24 18.048 6.496C17.984 6.72 17.824 6.896 17.568 7.024C17.312 7.184 17.152 7.392 17.088 7.648C17.056 7.872 16.96 8.096 16.8 8.32C16.256 9.152 15.744 10 15.264 10.864C14.784 11.728 14.336 12.624 13.92 13.552C13.856 13.648 13.776 13.76 13.68 13.888C13.616 13.984 13.616 14.112 13.68 14.272C13.84 14.208 13.952 14.16 14.016 14.128C14.08 14.064 14.144 14 14.208 13.936C15.584 12.592 16.832 11.152 17.952 9.616C19.072 8.08 20 6.4 20.736 4.576C20.896 4.224 20.992 3.872 21.024 3.52C21.056 3.136 21.008 2.736 20.88 2.32C20.784 2.352 20.704 2.416 20.64 2.512C20.576 2.608 20.48 2.656 20.352 2.656C20.224 2.592 20.112 2.592 20.016 2.656C19.952 2.72 19.936 2.784 19.968 2.848C20.096 3.136 20.08 3.328 19.92 3.424C19.792 3.52 19.632 3.632 19.44 3.76ZM17.28 6.064C17.44 6.192 17.536 6.224 17.568 6.16C17.6 6.096 17.648 6.064 17.712 6.064H17.28ZM18.432 5.248H18.192C17.936 5.248 17.808 5.52 17.808 6.064C17.904 5.904 17.984 5.744 18.048 5.584C18.112 5.424 18.24 5.312 18.432 5.248ZM17.952 3.136C17.408 3.584 16.912 4.08 16.464 4.624C16.016 5.136 15.632 5.728 15.312 6.4C15.792 5.856 16.24 5.312 16.656 4.768C17.072 4.224 17.504 3.68 17.952 3.136ZM14.976 6.784C14.72 7.04 14.592 7.296 14.592 7.552C14.688 7.456 14.784 7.36 14.88 7.264C14.976 7.136 15.008 6.976 14.976 6.784ZM14.016 8.368C13.696 8.688 13.52 9.008 13.488 9.328C13.648 9.168 13.76 9.024 13.824 8.896C13.92 8.768 13.984 8.592 14.016 8.368ZM12.768 10.768C12.256 11.28 11.984 11.856 11.952 12.496C12.112 12.208 12.24 11.92 12.336 11.632C12.464 11.344 12.608 11.056 12.768 10.768ZM11.04 14.032C10.976 14.16 10.912 14.272 10.848 14.368C10.784 14.464 10.784 14.608 10.848 14.8C10.944 14.576 10.992 14.432 10.992 14.368C11.024 14.304 11.04 14.192 11.04 14.032ZM10.176 16C10.176 16.16 10.192 16.272 10.224 16.336C10.416 16.08 10.496 15.808 10.464 15.52C10.304 15.68 10.208 15.84 10.176 16ZM10.176 16.384C9.984 16.448 9.888 16.56 9.888 16.72C9.888 16.848 9.856 16.992 9.792 17.152C10.048 16.992 10.176 16.736 10.176 16.384ZM1.68 14.896C1.52 15.216 1.344 15.552 1.152 15.904C0.96 16.224 0.944 16.608 1.104 17.056C1.168 16.672 1.248 16.304 1.344 15.952C1.472 15.6 1.584 15.248 1.68 14.896ZM2.832 41.344C3.024 41.344 3.088 41.264 3.024 41.104C2.96 41.04 2.912 40.944 2.88 40.816C2.88 40.72 2.816 40.688 2.688 40.72C2.528 40.72 2.416 40.832 2.352 41.056C2.416 41.184 2.576 41.28 2.832 41.344ZM4.224 34.72C4.48 33.76 4.8 32.672 5.184 31.456C5.568 30.24 5.888 29.152 6.144 28.192C6.624 26.752 7.088 25.344 7.536 23.968C8.016 22.592 8.496 21.184 8.976 19.744C8.848 19.776 8.768 19.824 8.736 19.888C8.704 19.92 8.672 19.968 8.64 20.032C8.224 21.248 7.808 22.48 7.392 23.728C7.008 24.976 6.592 26.208 6.144 27.424C6.112 27.552 6.08 27.68 6.048 27.808C6.048 27.904 6.08 28.032 6.144 28.192C6.016 28.192 5.936 28.24 5.904 28.336C5.904 28.4 5.888 28.464 5.856 28.528C5.76 28.88 5.648 29.216 5.52 29.536C5.424 29.856 5.328 30.192 5.232 30.544C4.976 31.312 4.672 32.208 4.32 33.232C4 34.256 3.76 35.184 3.6 36.016C3.568 36.208 3.536 36.4 3.504 36.592C3.472 36.784 3.488 36.976 3.552 37.168C3.712 36.752 3.84 36.336 3.936 35.92C4.032 35.536 4.128 35.136 4.224 34.72ZM13.824 35.536C13.664 35.536 13.52 35.52 13.392 35.488C13.296 35.488 13.168 35.488 13.008 35.488C12.368 35.488 11.664 35.536 10.896 35.632C10.16 35.728 9.424 35.856 8.688 36.016C7.984 36.176 7.344 36.352 6.768 36.544C6.192 36.736 5.744 36.944 5.424 37.168C6.8 36.72 8.176 36.352 9.552 36.064C10.96 35.776 12.384 35.6 13.824 35.536ZM23.7056 24.832C23.7056 24.608 23.7536 24.432 23.8496 24.304C23.9776 24.176 24.0896 24.032 24.1856 23.872C24.5696 23.264 24.8896 22.64 25.1456 22C25.4016 21.36 25.6576 20.72 25.9136 20.08C25.9776 19.92 26.0416 19.776 26.1056 19.648C26.2016 19.488 26.2816 19.328 26.3456 19.168C26.4096 19.104 26.4576 19.04 26.4896 18.976C26.5536 18.88 26.6176 18.832 26.6816 18.832C26.8096 18.832 26.8896 18.944 26.9216 19.168C27.1136 19.104 27.2576 19.072 27.3536 19.072C27.4816 19.072 27.5776 19.072 27.6416 19.072C28.2176 19.072 28.5376 19.376 28.6016 19.984C28.6656 20.848 28.6176 21.696 28.4576 22.528C28.2336 23.584 28.0256 24.656 27.8336 25.744C27.6416 26.8 27.4176 27.856 27.1616 28.912C27.0976 29.168 27.0496 29.424 27.0176 29.68C26.9856 29.904 27.0016 30.16 27.0656 30.448C27.5776 30.352 28.2656 29.952 29.1296 29.248C30.0256 28.512 30.9216 27.68 31.8176 26.752C32.7456 25.792 33.6096 24.864 34.4096 23.968C35.2096 23.04 35.7856 22.352 36.1376 21.904C36.2016 21.84 36.2496 21.776 36.2816 21.712C36.3136 21.616 36.3776 21.584 36.4736 21.616C36.6016 21.648 36.7136 21.632 36.8096 21.568C36.9056 21.504 37.0176 21.472 37.1456 21.472C37.3696 21.728 37.4336 21.936 37.3376 22.096C37.2736 22.224 37.1776 22.368 37.0496 22.528C36.9856 22.624 36.9056 22.72 36.8096 22.816C36.7456 22.912 36.6656 23.024 36.5696 23.152C36.3456 23.44 36.1376 23.744 35.9456 24.064C35.7536 24.352 35.4976 24.624 35.1776 24.88C34.8896 25.104 34.6336 25.392 34.4096 25.744C34.1856 26.064 33.9456 26.368 33.6896 26.656C33.3056 27.136 32.8416 27.68 32.2976 28.288C31.7856 28.896 31.2096 29.488 30.5696 30.064C29.9296 30.608 29.2576 31.072 28.5536 31.456C27.8816 31.808 27.2096 31.984 26.5376 31.984C25.6416 31.984 24.8896 31.68 24.2816 31.072C23.7056 30.464 23.4496 29.68 23.5136 28.72C23.5136 28.624 23.5136 28.528 23.5136 28.432C23.5456 28.304 23.5136 28.16 23.4176 28C23.1616 28.448 22.8896 28.88 22.6016 29.296C22.3456 29.68 22.0576 30.064 21.7376 30.448C21.3216 30.992 20.8576 31.456 20.3456 31.84C19.8336 32.224 19.2096 32.448 18.4736 32.512C17.9296 32.512 17.4336 32.432 16.9856 32.272C16.5376 32.08 16.1856 31.728 15.9296 31.216C15.6736 30.608 15.5456 29.92 15.5456 29.152C15.4816 28.032 15.5616 26.928 15.7856 25.84C15.9776 24.752 16.2016 23.68 16.4576 22.624C16.5856 22.112 16.7296 21.632 16.8896 21.184C17.0496 20.704 17.2256 20.24 17.4176 19.792C17.4816 19.632 17.5616 19.472 17.6576 19.312C17.7536 19.12 17.8816 19.056 18.0416 19.12H18.8096C19.3856 19.12 19.6736 19.392 19.6736 19.936C19.6416 20.96 19.4496 21.984 19.0976 23.008C19.0016 23.328 18.9856 23.584 19.0496 23.776C19.1456 24.128 19.1296 24.48 19.0016 24.832C18.9056 25.152 18.8736 25.488 18.9056 25.84C18.7456 26.064 18.6656 26.24 18.6656 26.368C18.6656 26.464 18.6656 26.56 18.6656 26.656C18.7296 26.912 18.7296 27.136 18.6656 27.328C18.6016 27.392 18.5536 27.392 18.5216 27.328C18.4896 27.264 18.4576 27.232 18.4256 27.232V27.328C18.4576 27.872 18.4736 28.416 18.4736 28.96C18.5056 29.472 18.4896 30 18.4256 30.544C18.3616 30.768 18.4416 30.88 18.6656 30.88C19.0496 30.656 19.4176 30.368 19.7696 30.016C20.1536 29.632 20.5216 29.232 20.8736 28.816C21.2256 28.4 21.5456 27.984 21.8336 27.568C22.1216 27.152 22.3616 26.8 22.5536 26.512C22.6496 26.384 22.7296 26.256 22.7936 26.128C22.8576 26 22.9696 25.888 23.1296 25.792C23.4176 25.792 23.6096 25.696 23.7056 25.504C23.8336 25.312 23.9456 25.104 24.0416 24.88C24.1056 24.816 24.0896 24.816 23.9936 24.88C23.8976 24.912 23.8176 24.912 23.7536 24.88L23.7056 24.832ZM16.2656 27.568C16.4256 26.192 16.6816 24.848 17.0336 23.536C17.3856 22.224 17.7376 20.896 18.0896 19.552C17.5456 20.832 17.1296 22.144 16.8416 23.488C16.5536 24.8 16.3616 26.16 16.2656 27.568ZM24.7616 26.08C24.7936 26.336 24.7456 26.56 24.6176 26.752C24.5216 26.912 24.5376 27.12 24.6656 27.376C24.7296 27.12 24.7936 26.912 24.8576 26.752C24.9536 26.56 24.9216 26.336 24.7616 26.08ZM52.4719 22.288C52.8239 22 53.1599 21.856 53.4799 21.856C53.6079 21.856 53.7199 21.872 53.8159 21.904C53.7519 22.128 53.6719 22.32 53.5759 22.48C53.4799 22.608 53.3679 22.736 53.2399 22.864C52.7919 23.28 52.3279 23.712 51.8479 24.16C51.3999 24.576 50.9199 24.96 50.4079 25.312C49.8639 25.728 49.3039 26.08 48.7279 26.368C48.1519 26.624 47.5439 26.88 46.9039 27.136C46.1999 27.424 45.6719 27.888 45.3199 28.528C44.7759 29.552 44.0079 30.384 43.0159 31.024C42.0559 31.632 40.9839 31.936 39.7999 31.936C39.3839 31.936 38.9839 31.904 38.5999 31.84C38.2159 31.744 37.8159 31.584 37.3999 31.36C37.3359 31.328 37.2079 31.28 37.0159 31.216C36.8879 31.344 36.8239 31.472 36.8239 31.6C36.8559 31.728 36.8719 31.856 36.8719 31.984C36.9039 32.208 36.8399 32.368 36.6799 32.464C36.5519 32.56 36.4719 32.704 36.4399 32.896C36.3759 33.088 36.3119 33.28 36.2479 33.472C36.2159 33.664 36.1679 33.84 36.1039 34C35.9439 34.384 35.8159 34.752 35.7199 35.104C35.6559 35.488 35.6239 35.872 35.6239 36.256C35.5919 36.448 35.5279 36.624 35.4319 36.784C35.3039 36.944 35.2079 37.104 35.1439 37.264C34.9519 38.224 34.7119 39.184 34.4239 40.144C34.3599 40.336 34.2959 40.528 34.2319 40.72C34.1359 40.944 34.0559 41.168 33.9919 41.392C33.8319 41.744 33.7199 42.112 33.6559 42.496C33.5599 42.912 33.4799 43.328 33.4159 43.744C33.3519 44.192 33.2719 44.464 33.1759 44.56C33.0479 44.656 32.7759 44.704 32.3599 44.704C32.1679 44.736 32.0559 44.8 32.0239 44.896C31.9599 44.992 31.8799 45.04 31.7839 45.04C31.4639 44.784 31.2399 44.56 31.1119 44.368C30.9519 44.176 30.9039 43.936 30.9679 43.648C31.1279 42.912 31.2879 42.176 31.4479 41.44C31.5759 40.736 31.7359 40.016 31.9279 39.28C32.2799 37.744 32.6319 36.224 32.9839 34.72C33.3039 33.248 33.6879 31.776 34.1359 30.304C34.7439 28.128 35.3039 25.952 35.8159 23.776C36.3599 21.6 37.0159 19.44 37.7839 17.296C37.9439 16.912 38.0719 16.512 38.1679 16.096C38.2639 15.648 38.2799 15.184 38.2159 14.704C38.9839 14.832 39.4959 15.04 39.7519 15.328C40.0079 15.616 40.1359 16.128 40.1359 16.864C40.1039 17.504 40.0399 18.128 39.9439 18.736C39.8799 19.312 39.7999 19.904 39.7039 20.512C39.6399 20.992 39.5279 21.472 39.3679 21.952C39.2399 22.4 39.0639 22.896 38.8399 23.44C39.2879 23.088 39.6559 22.72 39.9439 22.336C40.2639 21.952 40.5999 21.584 40.9519 21.232C41.3359 20.848 41.7199 20.48 42.1039 20.128C42.4879 19.776 42.9199 19.472 43.3999 19.216C43.8479 18.96 44.2799 18.832 44.6959 18.832C44.8879 18.832 45.0319 18.848 45.1279 18.88C46.0559 19.104 46.6479 19.44 46.9039 19.888C47.1599 20.336 47.3039 20.992 47.3359 21.856C47.3999 23.072 47.1599 24.24 46.6159 25.36C46.5519 25.52 46.5199 25.68 46.5199 25.84C46.5199 25.968 46.4879 26.128 46.4239 26.32C47.4479 26 48.5199 25.44 49.6399 24.64C50.7919 23.84 51.7359 23.056 52.4719 22.288ZM35.5759 31.456C35.6079 31.328 35.6719 31.216 35.7679 31.12C35.8639 30.992 35.8799 30.848 35.8159 30.688C35.6559 30.784 35.5759 30.896 35.5759 31.024C35.5439 31.152 35.5439 31.296 35.5759 31.456ZM36.5359 24.832C36.5679 24.672 36.5679 24.528 36.5359 24.4C36.5359 24.272 36.4719 24.112 36.3439 23.92C35.5119 27.28 34.6799 30.576 33.8479 33.808C32.9839 37.04 32.2159 40.304 31.5439 43.6C31.7999 42.64 32.0559 41.664 32.3119 40.672C32.5679 39.712 32.8239 38.752 33.0799 37.792C33.3679 36.768 33.6399 35.744 33.8959 34.72C34.1519 33.696 34.4079 32.672 34.6639 31.648C34.9839 30.528 35.3199 29.408 35.6719 28.288C35.9919 27.136 36.2799 25.984 36.5359 24.832ZM36.7759 26.656C37.1599 26.24 37.3199 25.664 37.2559 24.928C37.0959 25.248 36.9839 25.552 36.9199 25.84C36.8879 26.128 36.8399 26.4 36.7759 26.656ZM39.9919 30.496C40.5039 30.336 40.9359 30.096 41.2879 29.776C41.6719 29.424 42.0399 28.992 42.3919 28.48C42.1999 28.512 42.0239 28.528 41.8639 28.528C41.7359 28.528 41.6079 28.544 41.4799 28.576C41.0319 28.704 40.5679 28.832 40.0879 28.96C39.6079 29.056 39.1599 29.264 38.7439 29.584C38.6479 29.648 38.5359 29.728 38.4079 29.824C38.3119 29.92 38.2959 30.048 38.3599 30.208C38.5199 30.464 38.7439 30.592 39.0319 30.592H39.3679C39.4639 30.592 39.5599 30.592 39.6559 30.592C39.7839 30.592 39.8959 30.56 39.9919 30.496ZM42.2959 27.472C42.9039 27.376 43.3199 27.072 43.5439 26.56C44.0879 25.344 44.5039 24.16 44.7919 23.008C44.8879 22.56 44.9679 22.112 45.0319 21.664C45.0959 21.184 45.0639 20.672 44.9359 20.128C43.3999 21.152 42.0879 22.336 40.9999 23.68C39.9119 24.992 38.9839 26.448 38.2159 28.048C38.9199 27.888 39.6079 27.776 40.2799 27.712C40.9519 27.648 41.6239 27.568 42.2959 27.472ZM44.0719 26.896C44.6799 25.936 45.0639 24.864 45.2239 23.68C44.7759 24.768 44.3919 25.84 44.0719 26.896ZM59.613 20.32C59.805 20 59.981 19.696 60.141 19.408C60.301 19.12 60.461 18.832 60.621 18.544C60.685 18.448 60.749 18.336 60.813 18.208C60.909 18.08 61.005 18.048 61.101 18.112C61.197 18.144 61.309 18.16 61.437 18.16C61.597 18.16 61.741 18.144 61.869 18.112C61.997 18.08 62.125 18.064 62.253 18.064C62.477 18.064 62.669 18.144 62.829 18.304C63.021 18.464 63.117 18.688 63.117 18.976C63.149 19.328 63.117 19.68 63.021 20.032C62.957 20.352 62.877 20.688 62.781 21.04C62.429 22.096 62.077 23.168 61.725 24.256C61.373 25.312 61.021 26.384 60.669 27.472C60.509 28.016 60.349 28.56 60.189 29.104C60.061 29.616 60.029 30.192 60.093 30.832C60.637 30.576 61.117 30.272 61.533 29.92C61.981 29.536 62.381 29.136 62.733 28.72C63.501 27.792 64.253 26.88 64.989 25.984C65.757 25.056 66.525 24.128 67.293 23.2C67.389 23.04 67.501 22.896 67.629 22.768C67.757 22.64 67.869 22.496 67.965 22.336C68.093 22.176 68.237 22.096 68.397 22.096C68.557 22.064 68.717 22.032 68.877 22C69.197 22 69.293 22.128 69.165 22.384C69.069 22.608 68.941 22.8 68.781 22.96C68.013 23.952 67.261 24.96 66.525 25.984C65.821 27.008 65.037 27.952 64.173 28.816C63.533 29.456 62.893 30.064 62.253 30.64C61.645 31.184 60.925 31.616 60.093 31.936C59.805 32.064 59.501 32.128 59.181 32.128C58.669 32.128 58.221 31.968 57.837 31.648C57.453 31.328 57.213 30.88 57.117 30.304C57.021 29.856 57.005 29.424 57.069 29.008C57.133 28.56 57.197 28.112 57.261 27.664C57.293 27.536 57.309 27.424 57.309 27.328C57.341 27.232 57.325 27.104 57.261 26.944C56.909 27.296 56.589 27.664 56.301 28.048C56.045 28.432 55.725 28.768 55.341 29.056C54.829 29.408 54.317 29.76 53.805 30.112C53.293 30.432 52.701 30.608 52.029 30.64C51.485 30.64 51.069 30.528 50.781 30.304C50.461 30.08 50.269 29.696 50.205 29.152C50.109 28.576 50.109 28.032 50.205 27.52C50.301 26.976 50.445 26.448 50.637 25.936C50.925 25.2 51.277 24.432 51.693 23.632C52.077 22.8 52.541 22.048 53.085 21.376C53.661 20.672 54.301 20.096 55.005 19.648C55.709 19.168 56.509 18.928 57.405 18.928C57.853 18.928 58.269 19.024 58.653 19.216C59.037 19.408 59.357 19.776 59.613 20.32ZM53.037 28.96C53.357 28.704 53.629 28.48 53.853 28.288C54.109 28.096 54.349 27.872 54.573 27.616C55.213 26.88 55.837 26.128 56.445 25.36C57.053 24.56 57.645 23.76 58.221 22.96C58.573 22.448 58.637 21.92 58.413 21.376C58.125 20.768 57.853 20.464 57.597 20.464C57.373 20.464 57.069 20.688 56.685 21.136C55.853 22.064 55.165 23.104 54.621 24.256C54.109 25.376 53.629 26.528 53.181 27.712C53.117 27.872 53.085 28.048 53.085 28.24C53.085 28.432 53.069 28.672 53.037 28.96ZM51.117 27.04C50.509 28.096 50.525 28.928 51.165 29.536C51.069 29.088 51.037 28.672 51.069 28.288C51.101 27.872 51.117 27.456 51.117 27.04ZM57.885 30.592L58.125 27.808C57.933 28.256 57.805 28.72 57.741 29.2C57.677 29.648 57.725 30.112 57.885 30.592ZM51.645 28.624C51.581 28.752 51.549 28.864 51.549 28.96C51.517 29.056 51.549 29.136 51.645 29.2C51.869 29.04 51.869 28.848 51.645 28.624ZM73.7378 31.408C73.8978 30.672 73.8978 29.952 73.7378 29.248V31.408ZM73.7378 31.456C73.1618 33.632 72.3138 35.216 71.1938 36.208C70.0738 37.232 68.4098 37.808 66.2017 37.936C65.6577 37.968 65.2097 37.92 64.8577 37.792C64.4737 37.696 64.1057 37.536 63.7537 37.312C62.8897 36.768 62.5857 35.984 62.8417 34.96C62.9697 34.288 63.2737 33.648 63.7537 33.04C64.2017 32.432 64.7297 31.872 65.3377 31.36C65.9137 30.816 66.5377 30.336 67.2097 29.92C67.8497 29.504 68.4418 29.152 68.9858 28.864C69.5618 28.576 69.8818 28.368 69.9458 28.24C70.0098 28.08 69.9138 27.696 69.6578 27.088C69.3378 26.32 68.9858 25.568 68.6018 24.832C68.2178 24.064 67.7858 23.328 67.3057 22.624C66.9537 22.08 66.6657 21.536 66.4417 20.992C66.2177 20.416 66.1377 19.792 66.2017 19.12C66.2657 18.192 66.6017 17.44 67.2097 16.864C67.8178 16.288 68.5858 16 69.5138 16C69.7698 16 70.0258 16.016 70.2818 16.048C70.5698 16.08 70.8418 16.16 71.0978 16.288C71.6738 16.512 71.9458 16.96 71.9138 17.632C71.8818 18.08 71.7698 18.496 71.5778 18.88C71.4178 19.264 71.2098 19.632 70.9538 19.984C70.8578 20.08 70.7618 20.176 70.6658 20.272C70.6018 20.368 70.5218 20.464 70.4258 20.56C70.1378 20.784 70.1218 21.072 70.3778 21.424C70.5378 21.648 70.6818 21.872 70.8098 22.096C70.9698 22.32 71.1298 22.544 71.2898 22.768C71.6418 23.312 71.9778 23.856 72.2978 24.4C72.6498 24.944 72.9058 25.536 73.0658 26.176C73.1618 26.336 73.2578 26.416 73.3538 26.416C73.4818 26.416 73.8978 26.208 74.6018 25.792C75.3058 25.376 76.0578 24.912 76.8578 24.4C77.6578 23.856 78.4098 23.344 79.1138 22.864C79.8178 22.384 80.2338 22.096 80.3618 22C80.4898 21.872 80.6338 21.808 80.7938 21.808C80.8898 21.808 81.0338 21.84 81.2258 21.904C81.0978 22.192 80.8098 22.528 80.3618 22.912C79.9458 23.264 79.4658 23.632 78.9218 24.016C78.4098 24.368 77.8978 24.704 77.3858 25.024C76.9058 25.312 76.5378 25.536 76.2818 25.696C75.8978 25.952 75.5298 26.208 75.1778 26.464C74.8258 26.72 74.4738 26.96 74.1218 27.184C73.9618 27.28 73.8498 27.392 73.7858 27.52C73.7218 27.616 73.7218 27.792 73.7858 28.048C73.9458 28.496 74.0258 28.944 74.0258 29.392C74.0578 29.84 74.0578 30.288 74.0258 30.736C74.0258 30.896 74.0098 31.04 73.9778 31.168C73.9778 31.296 73.8978 31.392 73.7378 31.456ZM66.0577 35.968C66.7297 35.84 67.3537 35.568 67.9298 35.152C68.5378 34.736 69.0338 34.224 69.4178 33.616C69.8338 33.008 70.1218 32.368 70.2818 31.696C70.4418 30.992 70.4418 30.32 70.2818 29.68C69.3538 30.288 68.5218 30.96 67.7858 31.696C67.0817 32.4 66.5057 33.264 66.0577 34.288C65.9617 34.544 65.8977 34.8 65.8657 35.056C65.8017 35.344 65.8657 35.648 66.0577 35.968ZM69.7058 19.552C69.9298 19.2 70.0738 18.88 70.1378 18.592C70.2338 18.272 70.2338 17.92 70.1378 17.536C69.8498 17.824 69.6898 18.128 69.6578 18.448C69.6578 18.768 69.6738 19.136 69.7058 19.552ZM63.5617 35.296C63.7217 35.04 63.8337 34.784 63.8977 34.528C63.9297 34.272 63.9777 34.016 64.0417 33.76C63.8817 33.984 63.7537 34.208 63.6577 34.432C63.5297 34.656 63.4977 34.944 63.5617 35.296ZM71.3858 30.64C71.2578 30.896 71.1938 31.072 71.1938 31.168C71.1938 31.264 71.2258 31.456 71.2898 31.744C71.3218 31.52 71.3698 31.328 71.4338 31.168C71.4978 31.008 71.4818 30.832 71.3858 30.64ZM67.0177 19.12C67.1457 18.864 67.2577 18.656 67.3537 18.496C67.4177 18.304 67.4177 18.112 67.3537 17.92C67.2577 18.08 67.1617 18.256 67.0657 18.448C66.9697 18.608 66.9537 18.832 67.0177 19.12ZM114.14 21.904H114.332C114.684 21.904 114.78 22.096 114.62 22.48C114.524 22.704 114.412 22.912 114.284 23.104C114.188 23.296 114.076 23.488 113.948 23.68C112.924 25.28 111.868 26.848 110.78 28.384C109.692 29.888 108.572 31.392 107.42 32.896C107.036 33.408 106.636 33.904 106.22 34.384C105.836 34.896 105.42 35.376 104.972 35.824C104.492 36.304 103.916 36.544 103.244 36.544C103.052 36.544 102.844 36.528 102.62 36.496C102.428 36.464 102.22 36.416 101.996 36.352C101.548 36.192 101.196 35.936 100.94 35.584C100.716 35.264 100.556 34.88 100.46 34.432C100.332 33.696 100.3 32.992 100.364 32.32C100.46 31.616 100.556 30.896 100.652 30.16C100.748 29.552 100.86 28.96 100.988 28.384C101.148 27.808 101.292 27.216 101.42 26.608C101.132 27.088 100.828 27.568 100.508 28.048C100.22 28.496 99.8999 28.944 99.5479 29.392C99.4199 29.584 99.2919 29.76 99.1639 29.92C99.0359 30.08 98.8919 30.24 98.7319 30.4C98.3799 30.88 97.9959 31.216 97.5799 31.408C97.1639 31.568 96.7159 31.648 96.2359 31.648C95.4039 31.648 94.7159 31.456 94.1719 31.072C93.6599 30.688 93.3239 30.064 93.1639 29.2C93.1319 28.848 93.1159 28.48 93.1159 28.096C93.1159 27.712 93.1479 27.344 93.2119 26.992C93.4679 25.296 93.9799 23.632 94.7479 22C95.5479 20.336 96.6839 19.008 98.1559 18.016C98.7639 17.664 99.4359 17.488 100.172 17.488C100.812 17.488 101.42 17.648 101.996 17.968C102.604 18.256 103.1 18.72 103.484 19.36C103.644 19.232 103.74 19.088 103.772 18.928C103.804 18.736 103.852 18.56 103.916 18.4C104.108 17.824 104.364 17.184 104.684 16.48C105.036 15.744 105.388 15.008 105.74 14.272C106.092 13.504 106.444 12.768 106.796 12.064C107.148 11.36 107.468 10.736 107.756 10.192C108.012 9.712 108.316 9.2 108.668 8.656C108.732 8.528 108.812 8.4 108.908 8.272C109.004 8.144 109.148 8.064 109.34 8.032C109.404 8.096 109.42 8.176 109.388 8.272C109.388 8.368 109.388 8.448 109.388 8.512C109.484 8.448 109.564 8.384 109.628 8.32C109.724 8.224 109.836 8.176 109.964 8.176C110.252 8.336 110.444 8.48 110.54 8.608C110.636 8.736 110.684 8.912 110.684 9.136C110.652 9.552 110.588 9.952 110.492 10.336C110.396 10.72 110.268 11.104 110.108 11.488C110.012 11.808 109.916 12.128 109.82 12.448C109.724 12.736 109.692 13.056 109.724 13.408C109.756 13.472 109.756 13.552 109.724 13.648C109.692 13.744 109.676 13.824 109.676 13.888C109.676 14.08 109.58 14.336 109.388 14.656C109.228 14.976 109.052 15.312 108.86 15.664C108.668 16.016 108.476 16.368 108.284 16.72C108.124 17.04 108.044 17.296 108.044 17.488C108.044 17.84 107.964 18.208 107.804 18.592C107.676 18.976 107.564 19.344 107.468 19.696C107.372 20.048 107.276 20.416 107.18 20.8C107.084 21.184 106.988 21.552 106.892 21.904C106.54 23.312 106.108 24.768 105.596 26.272C105.5 26.624 105.388 26.992 105.26 27.376C105.164 27.728 105.052 28.096 104.924 28.48C104.668 29.312 104.428 30.16 104.204 31.024C104.012 31.888 103.788 32.752 103.532 33.616C103.5 33.744 103.484 33.872 103.484 34C103.484 34.16 103.468 34.32 103.436 34.48C103.82 34.32 104.14 34.112 104.396 33.856C104.684 33.568 104.956 33.296 105.212 33.04C105.852 32.336 106.476 31.616 107.084 30.88C107.692 30.144 108.284 29.408 108.86 28.672C108.956 28.544 109.052 28.432 109.148 28.336C109.244 28.24 109.34 28.128 109.436 28C109.628 27.648 109.836 27.392 110.06 27.232C110.22 26.848 110.428 26.576 110.684 26.416C110.94 25.872 111.276 25.392 111.692 24.976C111.98 24.528 112.268 24.08 112.556 23.632C112.844 23.184 113.116 22.736 113.372 22.288C113.468 22.128 113.58 22.032 113.708 22C113.868 21.968 114.012 21.936 114.14 21.904ZM107.612 11.92C107.548 12.08 107.484 12.256 107.42 12.448C107.356 12.64 107.244 12.8 107.084 12.928C107.308 12.864 107.452 12.752 107.516 12.592C107.612 12.432 107.692 12.256 107.756 12.064C107.916 11.648 108.092 11.248 108.284 10.864C108.508 10.48 108.716 10.08 108.908 9.664C108.972 9.472 109.068 9.296 109.196 9.136C109.324 8.944 109.388 8.736 109.388 8.512C109.196 8.576 109.068 8.672 109.004 8.8C108.94 8.928 108.876 9.072 108.812 9.232C108.588 9.68 108.38 10.128 108.188 10.576C108.028 11.024 107.836 11.472 107.612 11.92ZM107.084 12.976C107.116 13.072 107.1 13.184 107.036 13.312C107.004 13.408 106.988 13.536 106.988 13.696C107.148 13.536 107.212 13.408 107.18 13.312C107.18 13.184 107.148 13.072 107.084 12.976ZM95.5159 22.816L96.9559 20.368C96.5719 20.688 96.2679 21.072 96.0439 21.52C95.8199 21.936 95.6439 22.368 95.5159 22.816ZM102.236 22.384C102.268 22.32 102.284 22.256 102.284 22.192C102.316 22.128 102.3 22.08 102.236 22.048C102.012 21.888 101.916 21.712 101.948 21.52C101.98 21.296 101.964 21.088 101.9 20.896C101.836 20.64 101.756 20.384 101.66 20.128C101.596 19.872 101.436 19.616 101.18 19.36C100.476 19.968 99.8999 20.624 99.4519 21.328C99.0039 22.032 98.6359 22.784 98.3479 23.584C98.0599 24.352 97.8199 25.152 97.6279 25.984C97.4679 26.816 97.3079 27.664 97.1479 28.528C98.2039 27.6 99.1159 26.608 99.8839 25.552C100.652 24.464 101.436 23.408 102.236 22.384ZM116.578 25.216C116.738 25.088 116.802 24.976 116.77 24.88C116.738 24.752 116.69 24.608 116.626 24.448C116.562 24.544 116.53 24.688 116.53 24.88C116.53 25.04 116.546 25.152 116.578 25.216ZM116.53 25.312C116.402 25.472 116.306 25.632 116.242 25.792C116.178 25.92 116.306 26.064 116.626 26.224C116.69 26.256 116.706 26.368 116.674 26.56C116.674 26.752 116.658 26.928 116.626 27.088C116.466 27.536 116.434 27.984 116.53 28.432C116.626 28.88 116.738 29.328 116.866 29.776C116.93 30.032 117.026 30.192 117.154 30.256C117.282 30.288 117.474 30.304 117.73 30.304C118.786 30.112 119.826 29.744 120.85 29.2C121.874 28.624 122.85 27.952 123.778 27.184C124.738 26.416 125.634 25.6 126.466 24.736C127.33 23.872 128.114 23.056 128.818 22.288C128.978 22.128 129.106 22.016 129.202 21.952C129.394 21.76 129.666 21.664 130.018 21.664C130.21 21.664 130.322 21.712 130.354 21.808C130.514 22 130.546 22.176 130.45 22.336C130.354 22.496 130.258 22.64 130.162 22.768C129.842 23.12 129.538 23.472 129.25 23.824C128.962 24.176 128.642 24.496 128.29 24.784C128.066 24.976 127.842 25.2 127.618 25.456C127.426 25.68 127.25 25.92 127.09 26.176C126.61 26.848 126.018 27.536 125.314 28.24C124.61 28.944 123.842 29.584 123.01 30.16C122.178 30.736 121.298 31.216 120.37 31.6C119.442 31.952 118.546 32.128 117.682 32.128C117.426 32.128 117.154 32.112 116.866 32.08C116.578 32.048 116.306 32 116.05 31.936C115.154 31.744 114.434 31.344 113.89 30.736C113.378 30.128 112.994 29.408 112.738 28.576C112.386 27.456 112.274 26.352 112.402 25.264C112.498 24.176 112.754 23.104 113.17 22.048C113.426 21.376 113.746 20.704 114.13 20.032C114.546 19.36 115.01 18.736 115.522 18.16C116.066 17.552 116.642 17.024 117.25 16.576C117.89 16.128 118.562 15.792 119.266 15.568C119.522 15.44 119.794 15.36 120.082 15.328C120.37 15.296 120.642 15.28 120.898 15.28C121.794 15.28 122.674 15.52 123.538 16C124.146 16.32 124.546 16.704 124.738 17.152C124.93 17.568 124.978 18.096 124.882 18.736C124.594 20.4 123.874 21.712 122.722 22.672C121.57 23.632 120.178 24.24 118.546 24.496C118.45 24.528 118.338 24.544 118.21 24.544C118.114 24.544 118.018 24.544 117.922 24.544H117.346C117.186 24.544 117.074 24.592 117.01 24.688C116.978 24.752 116.93 24.912 116.866 25.168C116.834 25.264 116.818 25.36 116.818 25.456C116.818 25.52 116.802 25.584 116.77 25.648C116.61 25.648 116.53 25.616 116.53 25.552C116.53 25.488 116.53 25.408 116.53 25.312ZM122.674 18.784C122.61 18.336 122.546 18.032 122.482 17.872C122.418 17.68 122.306 17.584 122.146 17.584C121.954 17.584 121.73 17.696 121.474 17.92C120.642 18.528 119.906 19.216 119.266 19.984C118.658 20.72 118.162 21.568 117.778 22.528C117.554 22.944 117.698 23.2 118.21 23.296C118.434 23.328 118.61 23.328 118.738 23.296C118.866 23.264 118.978 23.232 119.074 23.2C120.002 22.848 120.786 22.272 121.426 21.472C122.098 20.64 122.514 19.744 122.674 18.784ZM115.858 19.552C115.314 20 114.898 20.512 114.61 21.088C114.322 21.664 114.05 22.272 113.794 22.912C113.666 23.2 113.73 23.424 113.986 23.584C114.146 22.784 114.402 22.08 114.754 21.472C115.138 20.832 115.506 20.192 115.858 19.552ZM122.77 20.32C122.866 20.192 122.946 20.064 123.01 19.936C123.074 19.808 123.074 19.664 123.01 19.504C122.946 19.664 122.866 19.808 122.77 19.936C122.706 20.032 122.706 20.16 122.77 20.32ZM164.316 2.32C165.276 2.96 165.868 3.776 166.092 4.768C166.348 5.728 166.22 6.704 165.708 7.696C165.324 8.464 164.78 9.312 164.076 10.24C163.404 11.168 162.636 12.048 161.772 12.88C160.94 13.68 160.028 14.368 159.036 14.944C158.076 15.488 157.116 15.76 156.156 15.76C155.9 15.76 155.708 15.744 155.58 15.712C155.356 15.712 155.164 15.68 155.004 15.616C154.844 15.52 154.732 15.36 154.668 15.136C154.828 15.04 154.924 14.992 154.956 14.992C155.02 14.96 155.084 14.944 155.148 14.944C155.564 14.944 155.932 14.864 156.252 14.704C156.604 14.512 156.956 14.304 157.308 14.08C158.556 13.152 159.724 12.048 160.812 10.768C161.932 9.488 162.748 8.096 163.26 6.592C163.548 5.568 163.42 4.688 162.876 3.952C162.364 3.184 161.564 2.768 160.476 2.704C158.172 2.704 156.172 3.248 154.476 4.336C152.78 5.392 151.26 6.8 149.916 8.56C149.788 8.72 149.676 8.88 149.58 9.04C149.516 9.168 149.404 9.296 149.244 9.424C149.18 9.584 149.116 9.744 149.052 9.904C148.988 10.064 148.86 10.176 148.668 10.24C148.604 10.464 148.54 10.688 148.476 10.912C148.412 11.104 148.348 11.312 148.284 11.536C148.124 12.048 148.06 12.544 148.092 13.024C148.124 13.504 148.204 14 148.332 14.512C148.972 16.592 150.188 18.352 151.98 19.792C152.78 20.464 153.596 21.104 154.428 21.712C155.26 22.32 156.076 22.976 156.876 23.68C157.836 24.512 158.556 25.312 159.036 26.08C159.516 26.816 159.788 27.856 159.852 29.2C159.852 29.52 159.804 29.824 159.708 30.112C159.612 30.368 159.596 30.656 159.66 30.976C159.436 31.296 159.244 31.648 159.084 32.032C158.956 32.384 158.828 32.736 158.7 33.088C158.572 33.44 158.412 33.792 158.22 34.144C158.06 34.496 157.836 34.816 157.548 35.104C156.524 36.064 155.484 36.816 154.428 37.36C153.372 37.936 152.124 38.224 150.684 38.224C150.204 38.224 149.708 38.208 149.196 38.176C148.716 38.176 148.236 38.112 147.756 37.984C146.828 37.728 145.948 37.248 145.116 36.544C144.316 35.84 143.804 34.896 143.58 33.712C143.42 32.976 143.404 32.272 143.532 31.6C143.692 30.928 143.948 30.272 144.3 29.632C144.556 29.152 144.796 28.688 145.02 28.24C145.244 27.76 145.516 27.296 145.836 26.848C146.188 26.4 146.652 26.176 147.228 26.176C147.292 26.176 147.452 26.208 147.708 26.272C147.868 26.304 147.98 26.384 148.044 26.512C148.108 26.608 148.092 26.688 147.996 26.752C147.644 27.008 147.436 27.312 147.372 27.664C147.34 28.016 147.196 28.32 146.94 28.576C146.876 28.64 146.828 28.704 146.796 28.768C146.796 28.832 146.716 28.88 146.556 28.912C146.364 28.976 146.236 29.12 146.172 29.344C146.14 29.568 146.156 29.792 146.22 30.016C146.316 30.4 146.3 30.768 146.172 31.12C145.98 31.728 145.9 32.336 145.932 32.944C145.996 33.552 146.156 34.144 146.412 34.72C146.668 35.392 147.052 35.872 147.564 36.16C148.108 36.48 148.732 36.64 149.436 36.64C150.396 36.608 151.324 36.368 152.22 35.92C153.148 35.504 153.948 34.944 154.62 34.24C155.324 33.536 155.9 32.72 156.348 31.792C156.796 30.864 157.052 29.872 157.116 28.816C157.18 28.08 157.052 27.392 156.732 26.752C156.444 26.08 156.028 25.472 155.484 24.928C155.1 24.544 154.684 24.192 154.236 23.872C153.788 23.52 153.34 23.184 152.892 22.864C152.156 22.352 151.436 21.856 150.732 21.376C150.06 20.864 149.388 20.336 148.716 19.792C147.724 18.96 146.876 18.032 146.172 17.008C145.468 15.984 144.94 14.832 144.588 13.552C144.172 12.08 144.3 10.736 144.972 9.52C145.676 8.24 146.492 7.056 147.42 5.968C148.348 4.848 149.372 3.888 150.492 3.088C151.644 2.288 152.892 1.664 154.236 1.216C155.58 0.735999 157.004 0.495999 158.508 0.495999C160.652 0.495999 162.588 1.104 164.316 2.32ZM145.884 10C146.14 9.584 146.38 9.184 146.604 8.8C146.86 8.384 147.116 7.968 147.372 7.552C147.02 7.904 146.7 8.272 146.412 8.656C146.156 9.04 145.98 9.488 145.884 10ZM146.268 26.944C145.756 27.776 145.26 28.608 144.78 29.44C144.3 30.24 144.092 31.152 144.156 32.176C144.316 31.248 144.62 30.368 145.068 29.536C145.516 28.672 145.916 27.808 146.268 26.944ZM144.972 32.656C145.036 32.496 145.068 32.352 145.068 32.224C145.068 32.096 145.02 31.952 144.924 31.792C144.956 31.952 144.924 32.096 144.828 32.224C144.764 32.352 144.812 32.496 144.972 32.656ZM145.212 31.36C145.276 31.104 145.324 30.864 145.356 30.64C145.42 30.384 145.484 30.128 145.548 29.872C145.292 30.224 145.132 30.496 145.068 30.688C145.036 30.88 145.084 31.104 145.212 31.36ZM155.868 33.904C155.932 33.84 156.012 33.776 156.108 33.712C156.236 33.616 156.284 33.488 156.252 33.328C156.06 33.392 155.932 33.584 155.868 33.904ZM156.3 33.28C156.46 33.216 156.572 33.104 156.636 32.944C156.7 32.784 156.748 32.624 156.78 32.464C156.524 32.656 156.364 32.928 156.3 33.28ZM157.068 31.936C157.228 31.712 157.356 31.472 157.452 31.216C157.548 30.96 157.58 30.656 157.548 30.304C157.388 30.656 157.26 30.96 157.164 31.216C157.068 31.44 157.036 31.68 157.068 31.936ZM161.964 10.24C162.156 10.112 162.3 9.904 162.396 9.616C162.172 9.744 162.028 9.952 161.964 10.24ZM162.828 8.896C163.052 8.672 163.228 8.448 163.356 8.224C163.516 7.968 163.596 7.68 163.596 7.36L162.828 8.896ZM178.016 22.048C178.272 21.856 178.448 21.744 178.544 21.712C178.64 21.68 178.832 21.632 179.12 21.568C178.864 22.176 178.496 22.784 178.016 23.392C177.568 23.968 177.04 24.496 176.432 24.976C175.824 25.456 175.184 25.872 174.512 26.224C173.872 26.576 173.232 26.816 172.592 26.944C172.176 27.04 171.856 27.296 171.632 27.712C171.312 28.32 170.96 28.88 170.576 29.392C170.192 29.872 169.792 30.368 169.376 30.88C168.896 31.52 168.352 32.016 167.744 32.368C167.136 32.72 166.416 32.896 165.584 32.896C164.592 32.896 163.824 32.528 163.28 31.792C162.736 31.024 162.464 30.192 162.464 29.296C162.4 26.704 163.2 24.448 164.864 22.528C164.96 22.432 165.04 22.336 165.104 22.24C165.2 22.144 165.312 22.064 165.44 22C165.856 21.84 166.128 21.616 166.256 21.328C166.416 21.04 166.576 20.72 166.736 20.368C167.088 19.568 167.584 18.896 168.224 18.352C168.896 17.808 169.696 17.536 170.624 17.536C171.424 17.536 172.176 17.76 172.88 18.208C173.616 18.624 173.984 19.28 173.984 20.176C174.048 21.008 173.984 21.808 173.792 22.576C173.6 23.312 173.376 24.064 173.12 24.832C173.088 24.896 173.04 24.976 172.976 25.072C172.944 25.136 172.944 25.232 172.976 25.36C173.264 25.328 173.584 25.232 173.936 25.072C174.288 24.88 174.624 24.672 174.944 24.448C175.296 24.192 175.616 23.936 175.904 23.68C176.192 23.392 176.432 23.152 176.624 22.96C176.784 22.8 176.928 22.64 177.056 22.48C177.184 22.32 177.36 22.192 177.584 22.096C177.616 22.032 177.648 21.984 177.68 21.952C177.712 21.92 177.744 21.872 177.776 21.808C177.84 21.744 177.888 21.712 177.92 21.712C177.984 21.712 178.048 21.68 178.112 21.616C178.144 21.744 178.112 21.888 178.016 22.048ZM163.952 25.792C164.112 25.44 164.288 25.088 164.48 24.736C164.672 24.384 164.848 24.032 165.008 23.68C164.336 24.288 163.984 24.992 163.952 25.792ZM167.792 19.696C167.536 19.856 167.376 20.048 167.312 20.272C167.248 20.496 167.184 20.736 167.12 20.992C167.28 20.8 167.424 20.608 167.552 20.416C167.68 20.224 167.776 20 167.84 19.744C168.032 19.616 168.208 19.376 168.368 19.024C167.984 19.216 167.792 19.44 167.792 19.696ZM166.592 31.552C167.424 31.04 168.144 30.416 168.752 29.68C169.36 28.944 169.936 28.144 170.48 27.28C169.712 27.216 169.008 27.088 168.368 26.896C167.76 26.672 167.232 26.24 166.784 25.6C166.656 25.696 166.544 25.776 166.448 25.84C166.384 25.904 166.336 25.968 166.304 26.032C166.144 26.384 166.032 26.768 165.968 27.184C165.936 27.568 165.776 27.936 165.488 28.288C165.584 28.736 165.6 29.184 165.536 29.632C165.504 30.048 165.52 30.48 165.584 30.928C165.648 31.472 165.792 31.744 166.016 31.744C166.08 31.744 166.272 31.68 166.592 31.552ZM171.488 25.36C171.808 24.624 172.048 23.872 172.208 23.104C172.4 22.304 172.528 21.52 172.592 20.752C172.56 20.592 172.544 20.464 172.544 20.368C172.544 20.272 172.544 20.176 172.544 20.08C172.448 19.216 172.064 18.784 171.392 18.784C171.04 18.784 170.736 18.896 170.48 19.12C170.224 19.344 169.984 19.584 169.76 19.84C169.28 20.48 168.96 21.152 168.8 21.856C168.64 22.56 168.56 23.28 168.56 24.016C168.56 24.784 168.72 25.296 169.04 25.552C169.36 25.808 169.888 25.936 170.624 25.936C170.848 25.904 171.024 25.856 171.152 25.792C171.28 25.728 171.392 25.584 171.488 25.36ZM189.18 21.856C189.628 21.92 189.9 22.032 189.996 22.192C190.092 22.32 190.108 22.56 190.044 22.912C189.948 23.2 189.82 23.504 189.66 23.824C189.436 24.208 189.084 24.752 188.604 25.456C188.156 26.16 187.628 26.944 187.02 27.808C186.444 28.672 185.82 29.552 185.148 30.448C184.476 31.312 183.788 32.112 183.084 32.848C182.412 33.584 181.756 34.176 181.116 34.624C180.476 35.104 179.916 35.344 179.436 35.344C178.924 35.344 178.428 35.184 177.948 34.864C177.5 34.544 177.164 34.096 176.94 33.52C176.684 32.688 176.556 31.92 176.556 31.216C176.492 29.872 176.572 28.544 176.796 27.232C177.02 25.92 177.324 24.624 177.708 23.344C178.06 22.256 178.476 21.04 178.956 19.696C179.436 18.352 179.98 17.008 180.588 15.664C181.228 14.288 181.916 12.992 182.652 11.776C183.42 10.56 184.236 9.552 185.1 8.752C185.292 8.592 185.484 8.448 185.676 8.32C185.9 8.192 186.124 8.048 186.348 7.888C186.604 7.76 186.86 7.696 187.116 7.696C187.308 7.696 187.484 7.728 187.644 7.792C187.836 7.856 188.028 7.936 188.22 8.032C188.828 8.448 189.084 8.992 188.988 9.664C188.924 10.336 188.78 11.008 188.556 11.68C188.364 12.32 188.092 12.928 187.74 13.504C187.036 14.688 186.316 15.872 185.58 17.056C184.876 18.24 184.06 19.344 183.132 20.368C182.204 21.04 181.564 21.824 181.212 22.72C180.86 23.584 180.556 24.496 180.3 25.456C180.012 26.576 179.756 27.696 179.532 28.816C179.308 29.904 179.132 31.024 179.004 32.176C178.972 32.784 178.972 33.424 179.004 34.096C179.292 34.032 179.532 33.936 179.724 33.808C179.948 33.68 180.172 33.536 180.396 33.376C180.844 33.024 181.26 32.672 181.644 32.32C182.06 31.968 182.444 31.584 182.796 31.168C182.892 31.072 182.972 30.976 183.036 30.88C183.132 30.784 183.26 30.736 183.42 30.736H183.612C183.484 30.384 183.516 30.144 183.708 30.016C183.932 29.888 184.124 29.728 184.284 29.536C184.444 29.184 184.652 28.896 184.908 28.672C185.292 28.128 185.66 27.584 186.012 27.04C186.364 26.496 186.812 26.016 187.356 25.6C187.516 24.96 187.804 24.416 188.22 23.968C188.636 23.488 188.924 22.944 189.084 22.336C189.116 22.272 189.132 22.192 189.132 22.096C189.132 22 189.148 21.92 189.18 21.856ZM185.628 9.088C185.084 9.472 184.508 10.096 183.9 10.96C183.292 11.792 182.844 12.592 182.556 13.36C183.036 12.624 183.532 11.904 184.044 11.2C184.556 10.464 185.084 9.76 185.628 9.088ZM187.26 9.904C185.916 11.344 184.876 12.896 184.14 14.56C183.436 16.192 182.748 17.856 182.076 19.552C182.172 19.552 182.284 19.52 182.412 19.456C182.444 19.424 182.492 19.392 182.556 19.36C182.652 19.168 182.764 18.992 182.892 18.832C182.988 18.672 183.084 18.512 183.18 18.352C183.276 18.192 183.372 18.064 183.468 17.968C183.628 17.68 183.772 17.408 183.9 17.152C184.06 16.864 184.268 16.608 184.524 16.384C184.588 16.192 184.684 15.984 184.812 15.76C184.972 15.536 185.116 15.328 185.244 15.136C185.404 14.912 185.58 14.672 185.772 14.416L186.492 12.688C186.652 12.24 186.812 11.808 186.972 11.392C187.132 10.944 187.228 10.448 187.26 9.904Z" fill="#CCC5B9"/>
</svg>
