<svg width="185" height="31" viewBox="0 0 185 31" fill="none" xmlns="http://www.w3.org/2000/svg">
<path d="M51.328 5.2H45.136V22H47.872V16.312H51.328C54.616 16.312 57.064 13.936 57.064 10.768C57.064 7.576 54.592 5.2 51.328 5.2ZM51.208 13.696H47.872V7.816H51.208C53.008 7.816 54.256 9.064 54.256 10.768C54.256 12.448 53.008 13.696 51.208 13.696ZM65.497 22.336C69.457 22.336 72.409 19.432 72.409 15.52C72.409 11.632 69.457 8.728 65.497 8.728C61.513 8.728 58.561 11.608 58.561 15.52C58.561 19.432 61.513 22.336 65.497 22.336ZM65.497 19.792C63.025 19.792 61.273 18.016 61.273 15.52C61.273 13.048 63.025 11.272 65.497 11.272C67.945 11.272 69.697 13.048 69.697 15.52C69.697 18.016 67.945 19.792 65.497 19.792ZM82.231 8.728C80.359 8.728 78.727 9.448 77.551 10.648L77.047 9.04H75.271V26.656H77.935V20.776C79.063 21.76 80.551 22.336 82.231 22.336C86.095 22.336 88.951 19.408 88.951 15.52C88.951 11.632 86.095 8.728 82.231 8.728ZM82.015 19.792C79.567 19.792 77.767 17.968 77.767 15.52C77.767 13.096 79.567 11.272 82.015 11.272C84.463 11.272 86.239 13.096 86.239 15.52C86.239 17.968 84.463 19.792 82.015 19.792ZM97.6499 22.336C100.842 22.336 103.41 20.32 104.106 17.296H101.418C100.722 18.88 99.3539 19.792 97.6499 19.792C95.3459 19.792 93.5699 17.92 93.5699 15.52C93.5699 13.12 95.3219 11.272 97.6499 11.272C99.3299 11.272 100.77 12.184 101.442 13.672H104.082C103.362 10.696 100.866 8.728 97.6499 8.728C93.7859 8.728 90.8579 11.656 90.8579 15.52C90.8579 19.384 93.7859 22.336 97.6499 22.336ZM112.724 22.336C116.684 22.336 119.636 19.432 119.636 15.52C119.636 11.632 116.684 8.728 112.724 8.728C108.74 8.728 105.788 11.608 105.788 15.52C105.788 19.432 108.74 22.336 112.724 22.336ZM112.724 19.792C110.252 19.792 108.5 18.016 108.5 15.52C108.5 13.048 110.252 11.272 112.724 11.272C115.172 11.272 116.924 13.048 116.924 15.52C116.924 18.016 115.172 19.792 112.724 19.792ZM128.714 8.968C126.938 8.968 125.666 9.592 124.73 10.816L124.298 9.04H122.498V22H125.162V15.112C125.162 12.76 126.242 11.488 128.45 11.488H129.866V8.968H128.714ZM138.783 8.752C136.887 8.752 135.279 9.544 134.319 10.864L133.791 9.04H131.943V22H134.607V15.064C134.607 12.784 136.047 11.152 138.087 11.152C140.031 11.152 141.063 12.4 141.063 14.752V22H143.727V14.2C143.727 11.008 141.831 8.752 138.783 8.752ZM159.532 5.2H153.628V22H159.532C164.476 22 168.052 18.472 168.052 13.6C168.052 8.728 164.476 5.2 159.532 5.2ZM159.46 19.432H156.364V7.792H159.46C162.868 7.792 165.244 10.216 165.244 13.6C165.244 16.984 162.868 19.432 159.46 19.432ZM180.972 13.264C182.196 12.472 182.94 10.984 182.94 9.544C182.94 7.072 180.876 5.224 178.068 5.224H171.3V22.024H178.188C181.092 22.024 183.372 19.936 183.372 17.296C183.372 15.496 182.484 13.984 180.972 13.264ZM180.18 9.928C180.18 11.176 179.22 12.112 177.9 12.112H174.012V7.744H177.9C179.22 7.744 180.18 8.68 180.18 9.928ZM178.044 19.384H174.012V14.632H178.044C179.508 14.632 180.564 15.64 180.564 17.008C180.564 18.376 179.508 19.384 178.044 19.384Z" fill="#CCC5B9"/>
<path d="M8 8H28V20H8V8ZM33 14C33 15.6569 34.3431 17 36 17V23C36 24.6569 34.6569 26 33 26H3C1.34312 26 0 24.6569 0 23V17C1.65688 17 3 15.6569 3 14C3 12.3431 1.65688 11 0 11V5C0 3.34312 1.34312 2 3 2H33C34.6569 2 36 3.34312 36 5V11C34.3431 11 33 12.3431 33 14ZM30 7.5C30 6.67156 29.3284 6 28.5 6H7.5C6.67156 6 6 6.67156 6 7.5V20.5C6 21.3284 6.67156 22 7.5 22H28.5C29.3284 22 30 21.3284 30 20.5V7.5Z" fill="#CCC5B9"/>
<path d="M8.5 8.5H27.5V19.5H8.5V8.5ZM32.5 14C32.5 15.7633 33.8038 17.2219 35.5 17.4646V23C35.5 24.3807 34.3807 25.5 33 25.5H3C1.61927 25.5 0.5 24.3807 0.5 23V17.4646C2.19616 17.2219 3.5 15.7633 3.5 14C3.5 12.2367 2.19616 10.7781 0.5 10.5354V5C0.5 3.61927 1.61927 2.5 3 2.5H33C34.3807 2.5 35.5 3.61927 35.5 5V10.5354C33.8038 10.7781 32.5 12.2367 32.5 14ZM30.5 7.5C30.5 6.39542 29.6046 5.5 28.5 5.5H7.5C6.39542 5.5 5.5 6.39542 5.5 7.5V20.5C5.5 21.6046 6.39542 22.5 7.5 22.5H28.5C29.6046 22.5 30.5 21.6046 30.5 20.5V7.5Z" stroke="black" stroke-opacity="0.7"/>
</svg>
