<svg width="90" height="60" viewBox="0 0 90 60" fill="none" xmlns="http://www.w3.org/2000/svg">
<path d="M20 15H70V45H20V15ZM82.5 30C82.5 34.1422 85.8578 37.5 90 37.5V52.5C90 56.6422 86.6422 60 82.5 60H7.5C3.35781 60 0 56.6422 0 52.5V37.5C4.14219 37.5 7.5 34.1422 7.5 30C7.5 25.8578 4.14219 22.5 0 22.5V7.5C0 3.35781 3.35781 0 7.5 0H82.5C86.6422 0 90 3.35781 90 7.5V22.5C85.8578 22.5 82.5 25.8578 82.5 30ZM75 13.75C75 11.6789 73.3211 10 71.25 10H18.75C16.6789 10 15 11.6789 15 13.75V46.25C15 48.3211 16.6789 50 18.75 50H71.25C73.3211 50 75 48.3211 75 46.25V13.75Z" fill="#CCC5B9"/>
<path d="M20.5 15.5H69.5V44.5H20.5V15.5ZM82 30C82 34.2504 85.3146 37.7265 89.5 37.9846V52.5C89.5 56.366 86.366 59.5 82.5 59.5H7.5C3.63395 59.5 0.5 56.366 0.5 52.5V37.9846C4.68541 37.7265 8 34.2504 8 30C8 25.7496 4.68541 22.2735 0.5 22.0154V7.5C0.5 3.63395 3.63395 0.5 7.5 0.5H82.5C86.366 0.5 89.5 3.63395 89.5 7.5V22.0154C85.3146 22.2735 82 25.7496 82 30ZM75.5 13.75C75.5 11.4028 73.5972 9.5 71.25 9.5H18.75C16.4028 9.5 14.5 11.4028 14.5 13.75V46.25C14.5 48.5972 16.4028 50.5 18.75 50.5H71.25C73.5972 50.5 75.5 48.5972 75.5 46.25V13.75Z" stroke="black" stroke-opacity="0.7"/>
</svg>
