<svg width="132" height="127" viewBox="0 0 132 127" fill="none" xmlns="http://www.w3.org/2000/svg">
<path d="M107.214 18.1804C103.784 4.74221 88.8086 -2.46857 76.9301 2.79477C76.5866 2.94713 76.232 3.07179 75.8968 3.24631C73.7305 4.33306 71.316 4.8299 68.8966 4.68681C66.7082 4.58985 65.3674 6.23534 66.0793 8.05258C66.3868 8.83654 67.0129 9.26037 67.7414 9.57895C71.3704 11.1552 75.1267 11.3685 79.0299 10.964C81.656 10.687 84.3293 10.7618 86.9748 10.8615C87.2648 10.8589 87.5515 10.9233 87.8125 11.0499C88.0735 11.1764 88.3017 11.3615 88.4793 11.5909C88.6568 11.8202 88.779 12.0875 88.8361 12.3718C88.8932 12.6562 88.8838 12.9499 88.8086 13.23C88.6876 13.6659 88.665 14.1232 88.7426 14.5688C88.8202 15.0144 88.9961 15.4371 89.2574 15.8063C89.4933 16.1296 89.7027 16.4715 89.8835 16.8285C90.1163 17.3489 90.4841 17.7976 90.9488 18.1278C91.4135 18.4581 91.9582 18.658 92.5262 18.7067C92.7918 18.7551 93.0445 18.8579 93.2686 19.0085C93.4926 19.1591 93.6831 19.3544 93.8282 19.5821C94.1662 20.2109 94.2216 20.9893 94.3407 21.4769C93.5318 22.0586 92.8226 22.4492 92.2658 22.9949C91.1416 24.0878 90.3297 25.4611 89.9139 26.9729C89.4347 28.7264 89.3017 30.4855 90.8807 31.9426L89.0386 33.6047C88.0579 32.5742 86.9305 32.0451 85.5897 32.3609C82.3347 33.1283 79.6394 34.7987 77.7085 37.5605C76.9495 38.6409 76.3373 39.8515 76.534 41.2338C76.5979 41.5024 76.5759 41.7844 76.471 42.0399C76.3662 42.2953 76.1837 42.5114 75.9495 42.6577C75.7008 42.8629 75.4649 43.083 75.2431 43.317C74.1073 44.3696 73.0436 45.3614 71.5006 46.0179C67.4007 47.7659 64.395 50.8075 62.913 55.1124C62.4255 56.5363 62.2592 57.9352 62.6748 59.2233C62.8592 59.1659 63.0538 59.1489 63.2454 59.1735C63.6576 59.2177 64.0726 59.2288 64.4865 59.2067C64.2551 58.7515 64.139 58.2464 64.1485 57.7358C64.1595 57.0635 64.2678 56.3964 64.4698 55.7551C65.6389 52.1234 68.2096 49.6607 71.4147 47.8379C73.5283 46.6301 74.7915 47.1371 75.847 49.331C75.9585 49.4906 76.1063 49.6215 76.2782 49.713C76.4501 49.8045 76.6412 49.854 76.8359 49.8574C77.39 49.8103 77.5202 49.3033 77.39 48.8075C77.138 47.7782 76.5094 46.8807 75.6281 46.2921C75.4398 46.1647 75.2569 46.0317 75.0048 45.8517C76.0326 44.8849 77.0188 44.0123 77.9301 43.0815C78.1878 42.8183 78.4316 42.2782 78.3346 41.9734C77.9412 40.7961 78.2875 39.7767 78.8886 38.8321C80.4843 36.2918 82.8611 34.8042 85.7116 34.0673C87.177 33.6878 88.2325 34.7239 88.0579 36.2475C87.6452 39.8265 84.9165 42.5635 81.0605 43.2449C80.451 43.353 79.9025 43.522 80.041 44.2838C80.1657 44.9818 80.7031 45.0012 81.2931 44.9154C86.1105 44.22 89.5427 40.4443 89.7671 35.5993C89.7671 35.4026 89.8142 35.1117 89.9444 35.0286C91.288 34.1726 92.0248 32.4496 93.8559 32.2889C94.0139 32.2544 94.1612 32.1821 94.2853 32.0783C96.2244 30.732 97.4073 28.9314 97.6649 26.5657C97.7314 25.9646 97.64 25.369 96.8782 25.3246C96.1801 25.2831 95.9973 25.7984 95.9585 26.3939C95.9071 27.1745 95.6831 27.934 95.3027 28.6175C94.9224 29.3011 94.3951 29.8918 93.759 30.347C93.31 30.6462 92.7672 30.7712 92.2326 30.6988C91.5871 30.5963 91.3738 29.9702 91.3184 29.3359C91.1467 27.3967 92.0719 25.8704 93.2077 24.4382C93.7451 23.7595 94.3158 23.2498 95.3352 23.5933C95.9779 23.8121 96.4433 23.1916 96.2771 22.5268C96.1801 22.1666 96.0915 21.8065 96.0305 21.4409C95.6846 19.2591 94.9107 17.1672 93.7534 15.2855C93.4293 14.7647 93.0664 14.2993 92.4127 14.6844C91.7589 15.0694 91.9417 15.6124 92.2963 16.136C92.4625 16.3853 92.5983 16.6568 92.7478 16.9199L92.5733 17.0972C92.2963 16.9338 91.9113 16.8368 91.7423 16.5958C91.274 15.9402 90.851 15.2535 90.4763 14.5403C90.3855 14.2912 90.3645 14.0221 90.4153 13.7619C90.4818 13.0555 90.5816 12.3491 90.6924 11.4682C91.5844 11.9835 92.5816 12.4489 93.4625 13.0805C98.9724 17.028 101.075 24.9174 98.4489 31.5299C96.8588 35.5328 93.9501 38.4553 90.7727 41.2033C88.8164 42.8377 86.9572 44.585 85.2046 46.4362C80.282 51.8187 76.9966 58.071 75.6503 65.2734C75.5395 65.869 75.6004 66.4037 76.3013 66.5034C76.9273 66.592 77.1739 66.1599 77.2958 65.5892C77.5451 64.4341 77.7861 63.2733 78.1268 62.1431C80.3651 54.6387 84.7309 48.5471 90.6148 43.4721C92.2187 42.087 93.8559 40.7241 95.3241 39.2088C100.826 33.5659 102.405 26.9341 100.033 19.4131C98.1552 13.4849 92.9695 9.32132 86.9526 8.95565C84.9249 8.83377 82.8777 8.95565 80.8416 9.03045C78.5922 9.11909 76.3595 9.4155 74.1156 9.4155C72.0906 9.4155 70.1432 8.82546 68.2982 7.98609C67.8467 7.7811 67.4201 7.46253 67.6694 6.95835C67.8135 6.66194 68.301 6.52344 68.6473 6.33783C68.7304 6.29351 68.8578 6.33783 68.9658 6.33783C71.4313 6.55391 73.7527 6.03588 76.0187 5.07186C77.6199 4.3904 79.2349 3.6286 80.9219 3.29064C89.3073 1.62853 96.3574 4.22973 101.643 10.784C106.629 16.9726 107.516 24.1446 105.114 31.7099C103.468 36.8957 100.759 41.4914 97.3907 45.7298C93.2742 50.8796 90.9749 56.6637 89.9139 62.88C89.9921 62.9148 90.068 62.9546 90.1411 62.9991C90.7384 63.3869 91.1904 63.9616 91.4265 64.6335C91.5013 63.9631 91.5788 63.2927 91.6647 62.6224C91.7894 61.6777 92.0719 60.7525 92.2354 60.0212L92.7229 58.2676C93.726 54.901 95.2405 51.7085 97.2134 48.8019C97.568 48.3393 98.8949 46.5138 99.2218 46.0927C101.712 42.9244 103.792 39.4546 105.413 35.7655C107.89 30.0949 108.787 24.2969 107.214 18.1804Z" fill="#CCC5B9"/>
<path d="M73.9163 56.8548C73.7446 56.8909 73.6255 57.154 73.4787 57.3119C72.9988 57.8317 72.4862 58.3203 71.944 58.7746C72.1695 58.9356 72.3234 59.178 72.3733 59.4505C72.4287 59.7885 72.4897 60.1264 72.5506 60.4644C73.4345 59.777 74.2466 59.002 74.9745 58.1513C75.0466 58.0709 75.1685 57.9768 75.1601 57.8992C75.1324 57.5363 75.1851 57.0294 74.9773 56.8576C74.7696 56.6859 74.2681 56.7856 73.9163 56.8548Z" fill="#CCC5B9"/>
<path d="M107.715 28.1807C107.543 28.0947 107.397 27.9654 107.29 27.8057C107.183 27.6459 107.12 27.461 107.106 27.2693" fill="#CCC5B9"/>
<path d="M73.4647 53.0846C73.3268 54.1402 72.8877 55.1338 72.1999 55.9463C71.5121 56.7589 70.6048 57.3561 69.5865 57.6665C69.2346 57.7794 68.8602 57.8032 68.4968 57.7359C68.1334 57.6687 67.7924 57.5124 67.5042 57.281C67.216 57.0496 66.9897 56.7504 66.8455 56.4102C66.7012 56.0699 66.6436 55.6992 66.6778 55.3312C66.8052 53.2564 69.1709 50.6801 71.243 50.3726C72.6309 50.1676 73.6642 51.4336 73.4647 53.0846ZM71.8358 53.201C71.9494 52.3699 71.5755 51.838 71.0519 52.1289C69.7887 52.8353 68.7277 53.7716 68.3731 55.262C68.2402 55.816 68.6114 56.1568 69.146 56.046C70.2652 55.8077 71.6807 54.3118 71.8358 53.201Z" fill="#CCC5B9"/>
<path d="M82.0218 41.1064C81.7538 41.078 81.4958 40.9887 81.2675 40.8454C81.0392 40.7022 80.8466 40.5087 80.7045 40.2797C80.5623 40.0507 80.4743 39.7923 80.4472 39.5241C80.4201 39.2559 80.4546 38.9851 80.548 38.7323C81.0107 37.3472 82.8889 36.0037 84.3432 36.0314C84.5646 36.044 84.7813 36.1007 84.9804 36.1983C85.1796 36.2959 85.3571 36.4323 85.5027 36.5996C85.6483 36.7669 85.759 36.9616 85.8282 37.1723C85.8973 37.383 85.9237 37.6054 85.9056 37.8265C85.7948 39.5495 83.7254 41.2947 82.0218 41.1064ZM84.1022 37.7517C83.224 38.0536 82.4872 38.4276 82.1187 39.3778C83.3016 39.2919 83.9 38.7933 84.1022 37.7517Z" fill="#CCC5B9"/>
<path d="M92.6455 27.7458C92.7369 26.6931 93.4627 25.7873 93.989 25.8704C94.1041 25.8775 94.2164 25.9089 94.3184 25.9626C94.4204 26.0163 94.5099 26.0911 94.5808 26.182C94.6518 26.2728 94.7027 26.3777 94.7301 26.4897C94.7575 26.6017 94.7608 26.7183 94.7398 26.8316C94.6567 27.6627 93.9087 28.5131 93.3851 28.3441C93.0555 28.2527 92.8062 27.8843 92.6455 27.7458Z" fill="#CCC5B9"/>
<path d="M77.3734 53.1428C77.2959 53.7384 77.0632 54.2509 76.3401 54.1622C75.7612 54.0874 75.5728 53.6386 75.667 53.0902C75.7612 52.5417 75.944 51.9239 76.6753 52.007C77.2875 52.0763 77.4842 52.5333 77.3734 53.1428Z" fill="#CCC5B9"/>
<path d="M61.9712 54.7772C61.8106 54.1096 61.8826 53.5915 62.4311 53.1151C63.1901 52.4613 63.3785 51.6164 63.1652 50.6219C62.7227 48.57 61.8955 46.6206 60.7274 44.8766C60.4683 44.4681 60.1121 44.1302 59.6906 43.8928C59.2691 43.6555 58.7954 43.5262 58.3118 43.5164C57.8564 43.4516 57.441 43.2207 57.1456 42.8682C56.5638 42.1396 56.176 41.2504 55.5749 40.5412C54.7771 39.6021 54.6358 38.6991 55.2286 37.6159C55.6801 36.7849 55.5056 35.9954 54.838 35.3333C54.2341 34.7238 53.6191 34.1227 52.9958 33.5382C51.7797 32.3941 50.4777 31.7958 48.9098 32.9149C48.8219 32.9785 48.7164 33.0133 48.6079 33.0146C48.3613 32.998 48.0538 33.0285 47.8849 32.8983C47.2533 32.4135 46.666 31.8733 46.0648 31.3525L46.1313 31.2196L46.8156 31.3415C47.8087 31.527 48.829 31.5101 49.8154 31.2916C50.8018 31.0732 51.7339 30.6577 52.5558 30.0702C53.3777 29.4827 54.0724 28.7352 54.5984 27.8726C55.1243 27.01 55.4706 26.0501 55.6164 25.0504C56.2453 20.7067 53.1482 16.5238 48.5552 15.5099C43.9623 14.496 38.7156 16.6817 35.8817 20.7344C32.8345 25.1058 33.0007 31.1005 36.1919 35.6934C37.854 38.0675 39.4136 40.508 40.8292 43.0261C43.5634 47.8961 44.8958 53.1178 44.1396 58.7385C44.0786 59.1873 44.0011 59.6333 43.9096 60.0765C44.219 60.0441 44.5297 60.1246 44.7843 60.3033C45.0389 60.4821 45.2202 60.7469 45.2947 61.0489L45.3945 61.3951C46.6017 56.0479 46.0628 50.4545 43.857 45.4361C42.2143 41.6216 40.0536 38.1256 37.6435 34.7516C35.0783 31.1503 34.5104 27.189 36.4302 23.1722C38.289 19.2939 41.5799 17.2219 45.8959 16.9338C49.9597 16.6567 53.5083 19.4962 53.9876 23.3052C54.1516 24.6367 53.8379 25.9833 53.1024 27.1053C52.3669 28.2273 51.2572 29.0521 49.9708 29.4328C47.1812 30.3137 45.0039 29.3913 43.5994 26.7319C42.7185 25.0698 42.9844 24.042 44.616 23.078C45.076 22.8043 45.582 22.6165 46.1092 22.524C47.835 22.247 48.8018 22.8481 49.2699 24.4631C49.4306 25.0171 49.7298 25.3302 50.3143 25.1917C50.8988 25.0531 50.9985 24.5988 50.9044 24.0587C50.7903 23.2824 50.4345 22.5618 49.8875 21.9993C49.3404 21.4368 48.63 21.0611 47.8572 20.9256C44.0454 20.1527 40.3971 23.3772 40.4192 27.5186C40.4043 28.9849 40.6918 30.4386 41.2638 31.7889C41.8357 33.1391 42.6798 34.357 43.7434 35.3665C49.8184 41.3584 53.7909 48.3421 55.1012 56.5612C55.3068 56.5276 55.5175 56.5457 55.7143 56.6139C55.9111 56.6821 56.0879 56.7982 56.2286 56.9518C56.4918 57.2149 56.755 57.4892 56.9904 57.7828C56.4715 53.3565 55.1477 49.0623 53.0845 45.112C50.9332 40.9583 48.1134 37.1867 44.7379 33.9482C43.3944 32.649 42.5218 31.1032 42.3473 29.1973C43.599 31.262 45.2432 33.0614 47.1868 34.4939C47.7796 34.9427 48.3558 35.1144 48.9486 34.7045C50.4473 33.6684 51.5747 34.2668 52.6246 35.4219C52.8026 35.6188 52.9932 35.8039 53.1953 35.976C53.7992 36.4718 53.8629 37.0203 53.3615 37.6658C53.1925 37.4968 53.0208 37.3334 52.8573 37.1644C52.4473 36.7295 51.9847 36.458 51.4722 36.9649C51.0069 37.4275 51.2645 37.8625 51.608 38.3085C52.9931 40.1368 54.4003 41.9679 55.7494 43.8322C56.3782 44.702 57.1345 45.1979 58.2232 45.2367C58.6107 45.2518 58.9764 45.4202 59.2398 45.7048C60.3852 47.2678 61.1696 49.0655 61.5363 50.9682C61.5945 51.2452 61.4477 51.5832 61.3978 51.8934H61.1734C61.0432 51.5776 60.9213 51.259 60.7828 50.9488C60.4504 50.1879 60.1134 49.427 59.7717 48.6662C59.5307 48.1287 59.1401 47.8351 58.5556 48.1121C58.0016 48.3698 58.0016 48.8379 58.2287 49.3421C58.2758 49.439 58.3035 49.5443 58.3506 49.6413C59.7584 52.5455 60.6936 55.6558 61.1208 58.8549C61.2067 59.4699 61.4172 60.0045 62.1734 59.8715C62.8798 59.7469 62.9214 59.1845 62.805 58.6139C62.5253 57.3396 62.2815 56.057 61.9712 54.7772Z" fill="#CCC5B9"/>
<path fill-rule="evenodd" clip-rule="evenodd" d="M54.2821 55.4931C54.5876 55.186 55.0778 55.165 55.4084 55.445L55.9856 55.9339L55.9873 55.9353L60.4332 59.6799L69.8017 56.3597L69.802 56.3596L70.4887 56.1159C70.8831 55.976 71.3202 56.1512 71.5086 56.525L71.8363 57.1747L76.3159 66.1033L87.0842 60.261L87.6382 59.959C87.9702 59.7781 88.3824 59.8441 88.6414 60.1195L89.0763 60.5821L89.0767 60.5826L92.6918 64.4331C92.7536 64.499 92.8043 64.5745 92.8418 64.6567L93.0607 65.136C93.0873 65.1942 93.1071 65.2553 93.1196 65.318L93.1224 65.3319C93.1276 65.358 93.1316 65.3843 93.1343 65.4108C93.3917 67.9359 93.365 70.482 93.0548 73.0013L93.0547 73.0018C91.0265 89.3835 77.5328 101.369 62.7474 99.5398C55.3491 98.6236 49.0915 94.4139 44.9556 88.3812C40.8218 82.3516 38.8166 74.5903 39.8299 66.4042C39.9859 65.1426 40.2134 63.891 40.5115 62.6553C40.8061 61.4251 41.1713 60.2129 41.6053 59.0247C41.6053 59.0245 41.6054 59.0243 41.6055 59.0241L42.0621 57.7677C42.1607 57.4962 42.3933 57.2955 42.6762 57.2374C42.9591 57.1794 43.2519 57.2725 43.4494 57.4832L47.7371 62.0535L53.7484 56.0296L54.2821 55.4931ZM54.9195 57.209L48.3069 63.8354C48.1479 63.9948 47.931 64.0828 47.7059 64.0794C47.4808 64.0759 47.2667 63.9812 47.1126 63.8171L43.1621 59.6069C42.7519 60.7315 42.4066 61.8788 42.1278 63.043L42.1274 63.0444C41.844 64.219 41.6277 65.4089 41.4795 66.6081C40.5149 74.4002 42.4268 81.7532 46.3265 87.4414C50.2241 93.1266 56.0778 97.0391 62.9515 97.8903C76.649 99.5848 89.4662 88.4561 91.4051 72.7981C91.695 70.444 91.7246 68.0652 91.4933 65.7049L91.3866 65.4713L87.87 61.7256L76.3542 67.9735C76.1564 68.0808 75.9235 68.1033 75.7089 68.0359C75.4942 67.9684 75.316 67.8168 75.2151 67.6157L70.3543 57.9273L60.5397 61.4056C60.2617 61.5041 59.9523 61.4479 59.7267 61.2579L54.9195 57.209Z" fill="#CCC5B9"/>
<path d="M5.59831 126.958C8.60953 126.958 11.0058 125.388 11.0058 122.42C11.0058 119.218 8.29144 118.56 5.98002 117.988C4.21994 117.563 2.69313 117.203 2.69313 115.825C2.69313 114.616 3.90185 113.937 5.38626 113.937C6.93427 113.937 8.16421 114.743 8.16421 116.227H10.5817C10.5817 113.428 8.67314 111.668 5.44987 111.668C2.29022 111.668 0.254469 113.259 0.254469 115.931C0.254469 118.984 2.86277 119.62 5.13179 120.172C6.91307 120.596 8.5035 120.956 8.5035 122.441C8.5035 123.798 7.16754 124.646 5.57711 124.646C3.83824 124.646 2.48107 123.713 2.48107 122.059H0C0 125.091 2.26901 126.958 5.59831 126.958Z" fill="#CCC5B9"/>
<path d="M23.2781 111.88H12.1451V114.171H16.4923V126.724H18.9309V114.171H23.2781V111.88Z" fill="#CCC5B9"/>
<path d="M28.057 124.434V120.278H33.6977V118.051H28.057V114.171H34.2491V111.88H25.6396V126.724H34.4823V124.434H28.057Z" fill="#CCC5B9"/>
<path d="M55.1084 126.724L52.7121 111.88H50.2735L45.7355 121.974L41.2186 111.88H38.8224L36.3837 126.724H38.8648L40.6037 115.973L45.4386 126.512H46.0535L50.8885 115.973L52.6061 126.724H55.1084Z" fill="#CCC5B9"/>
<path d="M72.4297 111.88V117.966H65.6226V111.88H63.2052V126.724H65.6226V120.257H72.4297V126.724H74.8683V111.88H72.4297Z" fill="#CCC5B9"/>
<path d="M88.7695 126.724H91.4202L85.2706 111.88H82.9803L77.0215 126.724H79.6086L80.8598 123.501H87.4972L88.7695 126.724ZM84.1679 115.061L86.6489 121.317H81.708L84.1679 115.061Z" fill="#CCC5B9"/>
<path d="M101.888 111.88H90.7554V114.171H95.1026V126.724H97.5412V114.171H101.888V111.88Z" fill="#CCC5B9"/>
<path d="M110.308 127C113.871 127 116.691 124.752 117.476 121.253H114.995C114.316 123.353 112.577 124.646 110.308 124.646C107.34 124.646 105.155 122.42 105.155 119.324C105.155 116.227 107.34 113.98 110.308 113.98C112.493 113.98 114.231 115.188 114.952 117.161H117.412C116.628 113.81 113.807 111.626 110.308 111.626C105.919 111.626 102.674 114.87 102.674 119.324C102.674 123.756 105.919 127 110.308 127Z" fill="#CCC5B9"/>
<path d="M129.275 111.88V117.966H122.468V111.88H120.051V126.724H122.468V120.257H129.275V126.724H131.714V111.88H129.275Z" fill="#CCC5B9"/>
<path fill-rule="evenodd" clip-rule="evenodd" d="M114.585 101.535H22.1111V99.0419H114.585V101.535Z" fill="#CCC5B9"/>
<path fill-rule="evenodd" clip-rule="evenodd" d="M95.7177 108.028H55.7024V105.535H95.7177V108.028Z" fill="#CCC5B9"/>
<path fill-rule="evenodd" clip-rule="evenodd" d="M50.3781 108.028H37.1643V105.535H50.3781V108.028Z" fill="#CCC5B9"/>
<path d="M73.8359 18.305L67.1071 20.1084C67.1071 20.233 67.0877 20.3466 67.0877 20.4574C67.0877 23.4695 67.0877 26.4817 67.0877 29.4938C67.0877 30.9786 65.7026 32.203 64.1236 32.0977C63.0959 32.0285 62.2898 31.5936 61.877 30.6157C61.3756 29.4356 62.0238 28.0145 63.2898 27.466C63.7558 27.2511 64.2696 27.1608 64.7809 27.204C65.2922 27.2472 65.7835 27.4225 66.2068 27.7125V27.2998V19.9643C66.2068 19.4906 66.265 19.4103 66.7276 19.2912L73.9689 17.3521C74.5229 17.2052 74.7085 17.3521 74.7113 17.9061C74.7113 20.9311 74.7307 23.9534 74.7279 26.9784C74.7279 28.5325 73.135 29.7846 71.52 29.5298C70.1128 29.3109 69.2152 28.2361 69.3593 26.9397C69.4756 25.8981 70.4258 24.934 71.556 24.7041C72.2424 24.5491 72.9619 24.6569 73.5727 25.0061C73.6309 25.0421 73.6946 25.0726 73.7556 25.103C73.7775 25.107 73.8001 25.107 73.822 25.103L73.8359 18.305Z" fill="#CCC5B9"/>
<path d="M50.3698 1.24624V3.89453C50.3698 5.20482 50.3698 6.51789 50.3698 7.83096C50.3844 8.16669 50.3008 8.49941 50.129 8.78827C49.9573 9.07714 49.7049 9.30957 49.403 9.45705C49.1012 9.63756 48.7549 9.72987 48.4033 9.72351C48.0518 9.71714 47.709 9.61235 47.414 9.42104C46.3392 8.75897 46.425 7.25476 47.5608 6.60654C47.8348 6.44213 48.1437 6.34488 48.4624 6.32274C48.7812 6.30059 49.1006 6.35417 49.3947 6.47911L49.6024 6.55113V5.37658C49.6024 3.76064 49.6024 2.14562 49.6024 0.531531C49.6024 0.481668 49.5858 0.420724 49.6024 0.381941C49.6717 0.248973 49.7299 0.0578304 49.8434 0.0135075C49.9181 -0.00408409 49.9958 -0.00449811 50.0707 0.0122966C50.1455 0.0290914 50.2156 0.0626569 50.2756 0.110464C51.1066 0.836251 51.9377 1.56204 52.7189 2.32661C53.097 2.71845 53.4443 3.13892 53.7577 3.58427C53.8009 3.62435 53.8345 3.67362 53.8561 3.72845C53.8777 3.78327 53.8867 3.84224 53.8825 3.90101C53.8782 3.95978 53.8608 4.01684 53.8315 4.06798C53.8023 4.11912 53.7619 4.16304 53.7134 4.19648C53.5056 4.33222 53.2923 4.26573 53.1123 3.98872C52.4945 3.033 51.6053 2.34323 50.7715 1.59528C50.669 1.49278 50.5498 1.3986 50.3698 1.24624Z" fill="#CCC5B9"/>
</svg>
