<svg width="267" height="261" viewBox="0 0 267 261" fill="none" xmlns="http://www.w3.org/2000/svg">
<g filter="url(#filter0_d)">
<path d="M188.216 61.8115C183.347 42.7327 162.086 32.4953 145.221 39.9679C144.734 40.1842 144.23 40.3612 143.754 40.6089C140.679 42.1518 137.251 42.8572 133.816 42.6541C130.709 42.5164 128.805 44.8526 129.816 47.4326C130.252 48.5456 131.141 49.1474 132.176 49.5997C137.328 51.8375 142.661 52.1403 148.202 51.5661C151.931 51.1728 155.726 51.279 159.482 51.4206C159.894 51.4168 160.301 51.5083 160.671 51.688C161.042 51.8676 161.366 52.1305 161.618 52.4561C161.87 52.7817 162.044 53.1612 162.125 53.5649C162.206 53.9686 162.192 54.3856 162.086 54.7833C161.914 55.402 161.882 56.0513 161.992 56.6839C162.102 57.3166 162.352 57.9168 162.723 58.4409C163.058 58.8999 163.355 59.3853 163.612 59.8922C163.942 60.6311 164.464 61.268 165.124 61.7369C165.784 62.2058 166.557 62.4896 167.364 62.5587C167.741 62.6275 168.1 62.7734 168.418 62.9872C168.736 63.2011 169.006 63.4783 169.212 63.8015C169.692 64.6943 169.771 65.7995 169.94 66.4917C168.791 67.3176 167.785 67.8721 166.994 68.6469C165.398 70.1986 164.245 72.1483 163.655 74.2946C162.975 76.7842 162.786 79.2816 165.028 81.3504L162.412 83.7101C161.02 82.2471 159.419 81.4959 157.516 81.9442C152.894 83.0337 149.068 85.4052 146.326 89.3264C145.249 90.8602 144.38 92.5789 144.659 94.5415C144.75 94.9229 144.718 95.3232 144.569 95.6859C144.421 96.0486 144.162 96.3554 143.829 96.563C143.476 96.8543 143.141 97.1669 142.826 97.4991C141.214 98.9936 139.703 100.402 137.513 101.334C131.692 103.815 127.425 108.134 125.321 114.246C124.628 116.267 124.392 118.253 124.982 120.082C125.244 120 125.52 119.976 125.792 120.011C126.378 120.074 126.967 120.09 127.554 120.058C127.226 119.412 127.061 118.695 127.075 117.97C127.09 117.016 127.244 116.068 127.531 115.158C129.191 110.002 132.84 106.506 137.391 103.918C140.392 102.203 142.185 102.923 143.683 106.037C143.842 106.264 144.052 106.45 144.296 106.58C144.54 106.71 144.811 106.78 145.088 106.785C145.874 106.718 146.059 105.998 145.874 105.294C145.516 103.833 144.624 102.559 143.373 101.723C143.105 101.542 142.846 101.353 142.488 101.098C143.947 99.7251 145.347 98.4862 146.641 97.1648C147.007 96.7911 147.353 96.0242 147.215 95.5916C146.657 93.9201 147.148 92.4727 148.002 91.1316C150.267 87.5251 153.642 85.4131 157.689 84.3669C159.769 83.8281 161.268 85.299 161.02 87.4622C160.434 92.5435 156.56 96.4293 151.085 97.3968C150.22 97.5502 149.441 97.7901 149.638 98.8717C149.815 99.8628 150.578 99.8903 151.416 99.7684C158.255 98.7812 163.128 93.4206 163.447 86.5419C163.447 86.2626 163.513 85.8497 163.698 85.7317C165.606 84.5164 166.652 82.0701 169.252 81.842C169.476 81.793 169.685 81.6904 169.861 81.5431C172.614 79.6317 174.294 77.0752 174.659 73.7165C174.754 72.8631 174.624 72.0175 173.542 71.9545C172.551 71.8955 172.292 72.6271 172.237 73.4727C172.164 74.5809 171.846 75.6591 171.306 76.6296C170.766 77.6001 170.017 78.4387 169.114 79.085C168.476 79.5097 167.706 79.6873 166.947 79.5845C166.03 79.4389 165.728 78.5501 165.649 77.6495C165.405 74.8964 166.719 72.7293 168.331 70.696C169.094 69.7324 169.904 69.0088 171.352 69.4965C172.264 69.8072 172.925 68.9262 172.689 67.9823C172.551 67.471 172.425 66.9597 172.339 66.4405C171.848 63.3429 170.749 60.373 169.106 57.7015C168.646 56.9621 168.131 56.3014 167.202 56.8481C166.274 57.3948 166.534 58.1656 167.037 58.9089C167.273 59.2629 167.466 59.6483 167.678 60.022L167.431 60.2737C167.037 60.0416 166.491 59.904 166.251 59.5618C165.586 58.6311 164.985 57.6561 164.453 56.6436C164.325 56.2899 164.295 55.9078 164.367 55.5384C164.461 54.5355 164.603 53.5326 164.76 52.2819C166.027 53.0135 167.442 53.6742 168.693 54.5709C176.516 60.1754 179.501 71.3764 175.772 80.7644C173.515 86.4475 169.385 90.5967 164.874 94.4982C162.097 96.8186 159.457 99.2993 156.969 101.928C149.98 109.569 145.316 118.446 143.404 128.672C143.247 129.517 143.333 130.276 144.328 130.418C145.217 130.544 145.567 129.93 145.74 129.12C146.094 127.48 146.437 125.832 146.92 124.227C150.098 113.573 156.296 104.924 164.65 97.7193C166.927 95.7528 169.252 93.8178 171.336 91.6665C179.147 83.6551 181.389 74.2396 178.022 63.5616C175.355 55.1451 167.993 49.2339 159.451 48.7147C156.572 48.5417 153.665 48.7147 150.775 48.8209C147.581 48.9468 144.411 49.3676 141.225 49.3676C138.35 49.3676 135.586 48.5299 132.966 47.3382C132.325 47.0472 131.719 46.5949 132.073 45.8791C132.278 45.4583 132.97 45.2616 133.462 44.9981C133.58 44.9352 133.761 44.9981 133.914 44.9981C137.414 45.3049 140.71 44.5694 143.927 43.2007C146.201 42.2332 148.493 41.1517 150.889 40.6719C162.794 38.3121 172.803 42.0051 180.307 51.3105C187.386 60.0967 188.645 70.2791 185.235 81.02C182.899 88.3825 179.052 94.9072 174.27 100.925C168.426 108.236 165.161 116.448 163.655 125.274C163.766 125.323 163.874 125.379 163.977 125.443C164.826 125.993 165.467 126.809 165.802 127.763C165.909 126.811 166.019 125.86 166.141 124.908C166.318 123.567 166.719 122.253 166.951 121.215L167.643 118.725C169.067 113.945 171.217 109.413 174.018 105.286C174.522 104.629 176.406 102.038 176.87 101.44C180.405 96.9417 183.358 92.0154 185.66 86.7778C189.176 78.7271 190.45 70.4954 188.216 61.8115Z" fill="#CCC5B9"/>
<path d="M140.942 116.719C140.699 116.771 140.529 117.144 140.321 117.368C139.64 118.106 138.912 118.8 138.142 119.445C138.462 119.673 138.681 120.018 138.752 120.405C138.83 120.884 138.917 121.364 139.003 121.844C140.258 120.868 141.411 119.768 142.445 118.56C142.547 118.446 142.72 118.312 142.708 118.202C142.669 117.687 142.744 116.967 142.449 116.723C142.154 116.479 141.442 116.621 140.942 116.719Z" fill="#CCC5B9"/>
<path d="M188.928 76.0094C188.684 75.8873 188.476 75.7038 188.324 75.477C188.173 75.2501 188.083 74.9877 188.063 74.7155" fill="#CCC5B9"/>
<path d="M140.301 111.367C140.105 112.865 139.482 114.276 138.505 115.43C137.529 116.583 136.241 117.431 134.795 117.872C134.295 118.032 133.764 118.066 133.248 117.97C132.732 117.875 132.248 117.653 131.839 117.324C131.43 116.996 131.108 116.571 130.904 116.088C130.699 115.605 130.617 115.079 130.665 114.556C130.846 111.61 134.205 107.953 137.147 107.516C139.117 107.225 140.584 109.023 140.301 111.367ZM137.989 111.532C138.15 110.352 137.619 109.597 136.876 110.01C135.082 111.013 133.576 112.342 133.072 114.458C132.884 115.245 133.411 115.728 134.17 115.571C135.759 115.233 137.768 113.109 137.989 111.532Z" fill="#CCC5B9"/>
<path d="M152.45 94.3606C152.07 94.3202 151.703 94.1935 151.379 93.9901C151.055 93.7867 150.782 93.512 150.58 93.1869C150.378 92.8618 150.253 92.4949 150.215 92.1141C150.176 91.7334 150.225 91.3489 150.358 90.99C151.015 89.0235 153.681 87.1161 155.746 87.1554C156.06 87.1732 156.368 87.2538 156.651 87.3924C156.933 87.5309 157.186 87.7246 157.392 87.9621C157.599 88.1996 157.756 88.4761 157.854 88.7752C157.952 89.0744 157.99 89.3901 157.964 89.7039C157.807 92.1502 154.869 94.628 152.45 94.3606ZM155.404 89.5978C154.157 90.0264 153.111 90.5574 152.588 91.9064C154.267 91.7845 155.117 91.0765 155.404 89.5978Z" fill="#CCC5B9"/>
<path d="M167.533 75.3919C167.663 73.8974 168.693 72.6113 169.44 72.7293C169.604 72.7394 169.763 72.784 169.908 72.8603C170.053 72.9366 170.18 73.0427 170.281 73.1717C170.381 73.3007 170.454 73.4497 170.492 73.6087C170.531 73.7677 170.536 73.9331 170.506 74.0941C170.388 75.2739 169.326 76.4814 168.583 76.2415C168.115 76.1117 167.761 75.5886 167.533 75.3919Z" fill="#CCC5B9"/>
<path d="M145.851 111.449C145.74 112.295 145.41 113.022 144.384 112.897C143.562 112.79 143.294 112.153 143.428 111.375C143.562 110.596 143.821 109.719 144.859 109.837C145.729 109.935 146.008 110.584 145.851 111.449Z" fill="#CCC5B9"/>
<path d="M123.983 113.77C123.755 112.822 123.858 112.086 124.636 111.41C125.714 110.482 125.981 109.282 125.679 107.87C125.05 104.957 123.876 102.189 122.218 99.7133C121.85 99.1334 121.344 98.6536 120.746 98.3166C120.147 97.9797 119.475 97.7961 118.788 97.7822C118.141 97.6902 117.552 97.3624 117.132 96.8619C116.306 95.8275 115.756 94.5651 114.902 93.5582C113.77 92.225 113.569 90.9428 114.411 89.405C115.052 88.2251 114.804 87.1043 113.856 86.1643C112.999 85.299 112.126 84.4456 111.241 83.6157C109.514 81.9914 107.666 81.1419 105.44 82.7308C105.315 82.8211 105.165 82.8705 105.011 82.8724C104.661 82.8488 104.224 82.8921 103.984 82.7072C103.088 82.0189 102.254 81.252 101.4 80.5126L101.495 80.3238L102.466 80.4969C103.876 80.7603 105.325 80.7363 106.725 80.4261C108.126 80.116 109.449 79.5262 110.616 78.692C111.783 77.8579 112.769 76.7967 113.516 75.572C114.263 74.3474 114.754 72.9845 114.961 71.5652C115.854 65.3983 111.457 59.4595 104.936 58.0201C98.4153 56.5806 90.9663 59.6837 86.9429 65.4376C82.6166 71.6438 82.8526 80.1547 87.3834 86.6756C89.7431 90.0461 91.9574 93.511 93.9671 97.0861C97.849 104 99.7407 111.414 98.667 119.394C98.5805 120.031 98.4704 120.664 98.3406 121.293C98.7798 121.247 99.2209 121.362 99.5823 121.615C99.9438 121.869 100.201 122.245 100.307 122.674L100.449 123.165C102.163 115.574 101.398 107.633 98.2658 100.508C95.9336 95.0921 92.8659 90.1287 89.4442 85.3384C85.8023 80.2255 84.9961 74.6014 87.7216 68.8986C90.3606 63.3925 95.033 60.4507 101.16 60.0416C106.93 59.6483 111.968 63.6796 112.649 69.0874C112.882 70.9779 112.436 72.8896 111.392 74.4826C110.348 76.0756 108.772 77.2465 106.946 77.7871C102.985 79.0378 99.8941 77.7281 97.9001 73.9525C96.6494 71.5927 97.027 70.1336 99.3435 68.7649C99.9965 68.3762 100.715 68.1097 101.463 67.9783C103.914 67.585 105.286 68.4385 105.951 70.7314C106.179 71.518 106.604 71.9624 107.434 71.7657C108.263 71.5691 108.405 70.9241 108.271 70.1572C108.109 69.055 107.604 68.032 106.828 67.2334C106.051 66.4349 105.042 65.9014 103.945 65.709C98.5333 64.6117 93.3536 69.1897 93.3851 75.0694C93.3639 77.1512 93.7721 79.2151 94.5841 81.1321C95.3961 83.0491 96.5946 84.7782 98.1046 86.2115C106.73 94.7184 112.369 104.633 114.23 116.302C114.522 116.255 114.821 116.281 115.1 116.377C115.38 116.474 115.631 116.639 115.83 116.857C116.204 117.231 116.578 117.62 116.912 118.037C116.175 111.753 114.296 105.656 111.367 100.048C108.312 94.1504 104.309 88.7957 99.5165 84.1978C97.609 82.3533 96.3702 80.1587 96.1224 77.4528C97.8996 80.3841 100.234 82.9388 102.993 84.9726C103.835 85.6097 104.653 85.8536 105.495 85.2715C107.622 83.8006 109.223 84.6501 110.714 86.2901C110.966 86.5697 111.237 86.8325 111.524 87.0767C112.381 87.7807 112.472 88.5594 111.76 89.4758C111.52 89.2359 111.276 89.0039 111.044 88.764C110.462 88.1465 109.805 87.7611 109.078 88.4808C108.417 89.1376 108.783 89.7551 109.27 90.3883C111.237 92.984 113.235 95.5837 115.15 98.2306C116.043 99.4655 117.116 100.17 118.662 100.225C119.212 100.246 119.732 100.485 120.106 100.889C121.732 103.108 122.845 105.66 123.366 108.362C123.449 108.755 123.24 109.235 123.169 109.675H122.851C122.666 109.227 122.493 108.775 122.296 108.334C121.824 107.254 121.346 106.174 120.861 105.094C120.518 104.331 119.964 103.914 119.134 104.307C118.347 104.673 118.347 105.337 118.67 106.053C118.737 106.191 118.776 106.34 118.843 106.478C120.842 110.601 122.169 115.017 122.776 119.559C122.898 120.432 123.197 121.191 124.271 121.002C125.273 120.825 125.332 120.027 125.167 119.217C124.77 117.408 124.424 115.587 123.983 113.77Z" fill="#CCC5B9"/>
<path fill-rule="evenodd" clip-rule="evenodd" d="M113.067 114.786C113.501 114.35 114.196 114.32 114.666 114.718L115.485 115.412L115.488 115.414L121.8 120.73L135.101 116.016L135.101 116.016L136.076 115.67C136.636 115.472 137.256 115.72 137.524 116.251L137.989 117.174L144.349 129.85L159.637 121.555L160.424 121.127C160.895 120.87 161.481 120.963 161.848 121.354L162.466 122.011L162.466 122.012L167.599 127.479C167.686 127.572 167.758 127.679 167.812 127.796L168.122 128.476C168.16 128.559 168.188 128.646 168.206 128.735L168.21 128.755C168.217 128.792 168.223 128.829 168.227 128.867C168.592 132.452 168.555 136.067 168.114 139.643L168.114 139.644C165.234 162.902 146.077 179.918 125.085 177.321C114.582 176.02 105.697 170.044 99.8255 161.479C93.9565 152.918 91.1097 141.899 92.5484 130.277C92.7697 128.486 93.0928 126.709 93.516 124.955C93.9343 123.208 94.4528 121.487 95.0689 119.8C95.069 119.8 95.0691 119.799 95.0692 119.799L95.7175 118.015C95.8575 117.63 96.1876 117.345 96.5893 117.263C96.991 117.18 97.4067 117.312 97.6871 117.611L103.774 124.1L112.309 115.548L113.067 114.786ZM113.972 117.222L104.584 126.63C104.358 126.856 104.05 126.981 103.73 126.976C103.411 126.971 103.107 126.837 102.888 126.604L97.2792 120.627C96.6968 122.223 96.2065 123.852 95.8107 125.505L95.8102 125.507C95.4079 127.175 95.1008 128.864 94.8903 130.567C93.5209 141.629 96.2352 152.069 101.772 160.145C107.305 168.216 115.616 173.771 125.375 174.979C144.822 177.385 163.019 161.585 165.772 139.355C166.184 136.013 166.226 132.635 165.897 129.284L165.746 128.953L160.753 123.635L144.404 132.505C144.123 132.657 143.792 132.689 143.487 132.594C143.182 132.498 142.93 132.283 142.786 131.997L135.885 118.242L121.951 123.18C121.556 123.32 121.117 123.24 120.797 122.971L113.972 117.222Z" fill="#CCC5B9"/>
<path d="M43.9482 216.247C48.2233 216.247 51.6254 214.02 51.6254 209.805C51.6254 205.258 47.7717 204.325 44.4901 203.512C41.9912 202.91 39.8236 202.398 39.8236 200.441C39.8236 198.725 41.5396 197.762 43.6471 197.762C45.8449 197.762 47.5911 198.906 47.5911 201.013H51.0233C51.0233 197.039 48.3137 194.54 43.7374 194.54C39.2515 194.54 36.3613 196.799 36.3613 200.592C36.3613 204.927 40.0644 205.831 43.2858 206.613C45.8148 207.215 48.0728 207.727 48.0728 209.835C48.0728 211.762 46.1761 212.966 43.9181 212.966C41.4493 212.966 39.5225 211.641 39.5225 209.293H36C36 213.598 39.2214 216.247 43.9482 216.247Z" fill="#CCC5B9"/>
<path d="M69.049 194.842H53.2429V198.093H59.4148V215.916H62.8771V198.093H69.049V194.842Z" fill="#CCC5B9"/>
<path d="M75.8338 212.665V206.764H83.8422V203.603H75.8338V198.093H84.625V194.842H72.4016V215.916H84.9561V212.665H75.8338Z" fill="#CCC5B9"/>
<path d="M114.24 215.916L110.838 194.842H107.376L100.933 209.172L94.52 194.842H91.1179L87.6556 215.916H91.1781L93.6469 200.652L100.511 215.615H101.384L108.249 200.652L110.687 215.916H114.24Z" fill="#CCC5B9"/>
<path d="M138.832 194.842V203.482H129.167V194.842H125.735V215.916H129.167V206.734H138.832V215.916H142.294V194.842H138.832Z" fill="#CCC5B9"/>
<path d="M162.03 215.916H165.793L157.062 194.842H153.811L145.351 215.916H149.024L150.8 211.34H160.224L162.03 215.916ZM155.497 199.358L159.019 208.239H152.005L155.497 199.358Z" fill="#CCC5B9"/>
<path d="M180.656 194.842H164.85V198.093H171.021V215.916H174.484V198.093H180.656V194.842Z" fill="#CCC5B9"/>
<path d="M192.61 216.308C197.668 216.308 201.672 213.116 202.786 208.149H199.263C198.3 211.129 195.831 212.966 192.61 212.966C188.395 212.966 185.294 209.805 185.294 205.409C185.294 201.013 188.395 197.822 192.61 197.822C195.711 197.822 198.18 199.538 199.203 202.338H202.696C201.582 197.581 197.577 194.48 192.61 194.48C186.378 194.48 181.771 199.087 181.771 205.409C181.771 211.701 186.378 216.308 192.61 216.308Z" fill="#CCC5B9"/>
<path d="M219.538 194.842V203.482H209.873V194.842H206.441V215.916H209.873V206.734H219.538V215.916H223V194.842H219.538Z" fill="#CCC5B9"/>
<path fill-rule="evenodd" clip-rule="evenodd" d="M198.682 180.154H67.3922V176.614H198.682V180.154Z" fill="#CCC5B9"/>
<path fill-rule="evenodd" clip-rule="evenodd" d="M171.895 189.373H115.083V185.833H171.895V189.373Z" fill="#CCC5B9"/>
<path fill-rule="evenodd" clip-rule="evenodd" d="M107.524 189.373H88.7638V185.833H107.524V189.373Z" fill="#CCC5B9"/>
<path d="M140.828 61.9884L131.275 64.5488C131.275 64.7258 131.248 64.887 131.248 65.0443C131.248 69.3208 131.248 73.5972 131.248 77.8736C131.248 79.9817 129.281 81.7201 127.039 81.5706C125.58 81.4723 124.436 80.8548 123.85 79.4665C123.138 77.791 124.058 75.7734 125.855 74.9947C126.517 74.6896 127.246 74.5614 127.972 74.6228C128.698 74.6841 129.396 74.9329 129.997 75.3447V74.7587V64.3443C129.997 63.6717 130.079 63.5577 130.736 63.3886L141.017 60.6355C141.804 60.4271 142.067 60.6355 142.071 61.4221C142.071 65.7169 142.099 70.0077 142.095 74.3025C142.095 76.5089 139.833 78.2866 137.54 77.9248C135.542 77.6141 134.268 76.0881 134.473 74.2474C134.638 72.7687 135.987 71.4 137.591 71.0736C138.566 70.8535 139.587 71.0065 140.455 71.5022C140.537 71.5534 140.628 71.5966 140.714 71.6399C140.745 71.6456 140.777 71.6456 140.809 71.6399L140.828 61.9884Z" fill="#CCC5B9"/>
<path d="M107.512 37.7693V41.5292C107.512 43.3895 107.512 45.2537 107.512 47.118C107.533 47.5946 107.414 48.067 107.17 48.4771C106.927 48.8872 106.568 49.2172 106.14 49.4266C105.711 49.6829 105.219 49.8139 104.72 49.8049C104.221 49.7959 103.735 49.6471 103.316 49.3755C101.79 48.4355 101.912 46.2999 103.524 45.3796C103.913 45.1462 104.352 45.0081 104.804 44.9767C105.257 44.9452 105.71 45.0213 106.128 45.1987L106.423 45.3009V43.6334C106.423 41.3391 106.423 39.0462 106.423 36.7546C106.423 36.6838 106.399 36.5973 106.423 36.5423C106.521 36.3535 106.604 36.0821 106.765 36.0192C106.871 35.9942 106.981 35.9936 107.088 36.0175C107.194 36.0413 107.293 36.089 107.378 36.1568C108.558 37.1873 109.738 38.2177 110.847 39.3032C111.384 39.8595 111.877 40.4565 112.322 41.0888C112.383 41.1457 112.431 41.2156 112.462 41.2934C112.493 41.3713 112.505 41.455 112.499 41.5384C112.493 41.6219 112.469 41.7029 112.427 41.7755C112.385 41.8481 112.328 41.9105 112.259 41.9579C111.964 42.1506 111.661 42.0563 111.406 41.663C110.529 40.3061 109.266 39.3268 108.082 38.2649C107.937 38.1194 107.768 37.9857 107.512 37.7693Z" fill="#CCC5B9"/>
</g>
<defs>
<filter id="filter0_d" x="0" y="0" width="267" height="260.308" filterUnits="userSpaceOnUse" color-interpolation-filters="sRGB">
<feFlood flood-opacity="0" result="BackgroundImageFix"/>
<feColorMatrix in="SourceAlpha" type="matrix" values="0 0 0 0 0 0 0 0 0 0 0 0 0 0 0 0 0 0 127 0"/>
<feOffset dx="4" dy="4"/>
<feGaussianBlur stdDeviation="20"/>
<feColorMatrix type="matrix" values="0 0 0 0 0 0 0 0 0 0 0 0 0 0 0 0 0 0 0.25 0"/>
<feBlend mode="normal" in2="BackgroundImageFix" result="effect1_dropShadow"/>
<feBlend mode="normal" in="SourceGraphic" in2="effect1_dropShadow" result="shape"/>
</filter>
</defs>
</svg>
